<?xml version="1.0" encoding="utf-8"?>
<!-- Generator: Adobe Illustrator 25.1.0, SVG Export Plug-In . SVG Version: 6.00 Build 0)  -->
<svg version="1.1" id="Capa_1" xmlns="http://www.w3.org/2000/svg" xmlns:xlink="http://www.w3.org/1999/xlink" x="0px" y="0px"
	 viewBox="0 0 882.3 40.2" style="enable-background:new 0 0 882.3 40.2;" xml:space="preserve">
<style type="text/css">
	.st0{fill:#407EC9;}
	.st1{fill:#F7A823;}
	.st2{font-family:'MyriadPro-Bold';}
	.st3{font-size:20px;}
</style>
<g>
	<g>
		<path class="st0" d="M16.2,35.1c-1.8,0-3.4-0.3-5-0.9S8,32.9,6.5,31.7l2.8-4c1.5,1.1,2.9,1.8,3.9,2.3c1.1,0.4,2.2,0.7,3.3,0.7
			c0.8,0,1.5-0.1,2-0.3c0.6-0.2,1-0.5,1.3-0.8c0.3-0.4,0.5-0.8,0.5-1.2c0-0.7-0.2-1.2-0.7-1.5c-0.4-0.4-1.2-0.6-2.3-0.8l-4.7-0.8
			c-1.8-0.3-3.1-1-4.1-2c-0.9-1.1-1.4-2.4-1.4-3.9c0-1.4,0.4-2.7,1.1-3.7s1.7-1.9,3-2.4c1.3-0.6,2.9-0.9,4.8-0.9
			c1.7,0,3.4,0.3,5,0.8c1.6,0.5,3,1.2,4.1,2.1l-2.8,4c-1.1-0.8-2.2-1.4-3.2-1.8c-1.1-0.4-2.2-0.6-3.4-0.6c-0.7,0-1.3,0.1-1.8,0.3
			c-0.5,0.2-0.9,0.4-1.2,0.7c-0.3,0.3-0.4,0.7-0.4,1.1c0,0.6,0.2,1,0.6,1.3c0.4,0.3,1,0.5,1.9,0.7l4.5,0.8c2.1,0.3,3.7,1.1,4.7,2.1
			c1.1,1.1,1.6,2.5,1.6,4.2c0,1.4-0.4,2.7-1.2,3.8c-0.8,1.1-1.9,2-3.3,2.6C19.8,34.8,18.1,35.1,16.2,35.1z"/>
		<path class="st0" d="M39.7,35.1c-1.6,0-3.1-0.3-4.5-0.9c-1.4-0.6-2.6-1.4-3.7-2.5c-1.1-1.1-1.9-2.3-2.5-3.7
			c-0.6-1.4-0.9-2.9-0.9-4.5c0-1.6,0.3-3.1,0.9-4.5c0.6-1.4,1.4-2.6,2.5-3.7s2.3-1.9,3.7-2.5c1.4-0.6,2.9-0.9,4.5-0.9
			c1.6,0,3.1,0.3,4.5,0.9s2.6,1.4,3.7,2.5s1.9,2.3,2.5,3.7c0.6,1.4,0.9,2.9,0.9,4.5c0,1.6-0.3,3.1-0.9,4.5c-0.6,1.4-1.4,2.6-2.5,3.7
			c-1.1,1.1-2.3,1.9-3.7,2.5C42.8,34.8,41.3,35.1,39.7,35.1z M39.7,30.3c0.8,0,1.6-0.2,2.3-0.5c0.7-0.3,1.3-0.8,1.9-1.4
			c0.5-0.6,0.9-1.3,1.2-2.1c0.3-0.8,0.4-1.7,0.4-2.6c0-1-0.1-1.8-0.4-2.6c-0.3-0.8-0.7-1.5-1.2-2.1c-0.5-0.6-1.2-1.1-1.9-1.4
			c-0.7-0.3-1.5-0.5-2.3-0.5c-0.8,0-1.6,0.2-2.3,0.5c-0.7,0.3-1.3,0.8-1.9,1.4c-0.5,0.6-0.9,1.3-1.2,2.1c-0.3,0.8-0.4,1.7-0.4,2.6
			c0,1,0.1,1.8,0.4,2.6c0.3,0.8,0.7,1.5,1.2,2.1c0.5,0.6,1.2,1.1,1.9,1.4C38.1,30.1,38.9,30.3,39.7,30.3z"/>
		<path class="st0" d="M62.9,35.1c-1.8,0-3.4-0.3-5-0.9c-1.6-0.6-3.1-1.4-4.6-2.5l2.8-4c1.5,1.1,2.9,1.8,3.9,2.3
			c1.1,0.4,2.2,0.7,3.3,0.7c0.8,0,1.5-0.1,2-0.3c0.6-0.2,1-0.5,1.3-0.8c0.3-0.4,0.5-0.8,0.5-1.2c0-0.7-0.2-1.2-0.7-1.5
			c-0.4-0.4-1.2-0.6-2.3-0.8l-4.7-0.8c-1.8-0.3-3.1-1-4.1-2c-0.9-1.1-1.4-2.4-1.4-3.9c0-1.4,0.4-2.7,1.1-3.7c0.7-1.1,1.7-1.9,3-2.4
			c1.3-0.6,2.9-0.9,4.8-0.9c1.7,0,3.4,0.3,5,0.8c1.6,0.5,3,1.2,4.1,2.1l-2.8,4c-1.1-0.8-2.2-1.4-3.2-1.8c-1.1-0.4-2.2-0.6-3.4-0.6
			c-0.7,0-1.3,0.1-1.8,0.3c-0.5,0.2-0.9,0.4-1.2,0.7c-0.3,0.3-0.4,0.7-0.4,1.1c0,0.6,0.2,1,0.6,1.3c0.4,0.3,1,0.5,1.9,0.7l4.5,0.8
			c2.1,0.3,3.7,1.1,4.7,2.1c1.1,1.1,1.6,2.5,1.6,4.2c0,1.4-0.4,2.7-1.2,3.8c-0.8,1.1-1.9,2-3.3,2.6C66.6,34.8,64.9,35.1,62.9,35.1z"
			/>
		<path class="st0" d="M80.9,34.8V17.2h-7.2v-4.7h19.8v4.7h-7.2v17.6H80.9z"/>
		<path class="st0" d="M96.7,34.8V12.5h16.8v4.6h-11.4v4.2h8v4.5h-8v4.4h11.5v4.6H96.7z"/>
		<path class="st0" d="M117.9,34.8V12.5h5.2L133,26l-0.1-13.5h5.2v22.3h-4.8L123,20.8l0.1,13.9H117.9z"/>
		<path class="st0" d="M142.7,34.8V12.5h5.5v22.3H142.7z"/>
		<path class="st0" d="M152.8,34.8V12.5h11c1.4,0,2.7,0.3,3.8,0.8c1.1,0.5,2,1.2,2.6,2.1c0.6,0.9,1,2,1,3.2c0,1-0.3,2-0.9,2.8
			c-0.6,0.8-1.4,1.5-2.4,2c1.2,0.5,2.1,1.2,2.8,2.1c0.7,0.9,1.1,1.9,1.1,3.1c0,1.2-0.3,2.3-1,3.2c-0.6,0.9-1.5,1.7-2.7,2.2
			c-1.1,0.5-2.4,0.8-3.9,0.8H152.8z M158.3,21.4h4.9c0.8,0,1.4-0.2,1.8-0.6c0.5-0.4,0.7-1,0.7-1.7c0-0.7-0.2-1.3-0.7-1.7
			c-0.5-0.4-1.1-0.6-1.9-0.6h-4.9V21.4z M158.3,30.4h5.3c0.8,0,1.5-0.2,2-0.7c0.5-0.4,0.7-1,0.7-1.8s-0.2-1.3-0.7-1.8
			c-0.5-0.4-1.1-0.7-2-0.7h-5.3V30.4z"/>
		<path class="st0" d="M175.7,34.8V12.5h5.5v22.3H175.7z"/>
		<path class="st0" d="M185.8,34.8V12.5h5.5v17.6h11v4.7H185.8z"/>
		<path class="st0" d="M206.1,34.8V12.5h5.5v22.3H206.1z"/>
		<path class="st0" d="M216.3,34.8V12.5h9.1c1.6,0,3,0.3,4.4,0.9c1.3,0.6,2.5,1.4,3.6,2.4c1,1,1.8,2.2,2.4,3.5
			c0.6,1.3,0.9,2.8,0.9,4.3c0,1.5-0.3,3-0.9,4.3c-0.6,1.3-1.4,2.5-2.4,3.5c-1,1-2.2,1.8-3.6,2.4c-1.3,0.6-2.8,0.9-4.4,0.9H216.3z
			 M221.7,30.1h3.6c1,0,2-0.3,2.8-0.9c0.8-0.6,1.5-1.4,2-2.3c0.5-1,0.7-2.1,0.7-3.3c0-1.2-0.2-2.3-0.7-3.3c-0.5-1-1.2-1.8-2-2.3
			c-0.8-0.6-1.8-0.9-2.8-0.9h-3.6V30.1z"/>
		<path class="st0" d="M236.9,34.8l8.7-22.3h6.2l8.6,22.3h-5.9l-1.8-5.3h-8.1l-1.9,5.3H236.9z M246,25.2h5.2l-2.6-7.4L246,25.2z"/>
		<path class="st0" d="M263,34.8V12.5h9.1c1.6,0,3,0.3,4.4,0.9c1.3,0.6,2.5,1.4,3.6,2.4c1,1,1.8,2.2,2.4,3.5
			c0.6,1.3,0.9,2.8,0.9,4.3c0,1.5-0.3,3-0.9,4.3c-0.6,1.3-1.4,2.5-2.4,3.5c-1,1-2.2,1.8-3.6,2.4c-1.3,0.6-2.8,0.9-4.4,0.9H263z
			 M268.4,30.1h3.6c1,0,2-0.3,2.8-0.9c0.8-0.6,1.5-1.4,2-2.3c0.5-1,0.7-2.1,0.7-3.3c0-1.2-0.2-2.3-0.7-3.3c-0.5-1-1.2-1.8-2-2.3
			c-0.8-0.6-1.8-0.9-2.8-0.9h-3.6V30.1z"/>
	</g>
	<g>
		<path class="st0" d="M300.7,34.8V12.5h5.5v22.3H300.7z"/>
		<path class="st0" d="M310.8,34.8V12.5h5.2l9.9,13.5l-0.1-13.5h5.2v22.3h-4.8l-10.2-13.9l0.1,13.9H310.8z"/>
		<path class="st0" d="M335.9,34.8V12.5h5.2l9.9,13.5l-0.1-13.5h5.2v22.3h-4.8l-10.2-13.9l0.1,13.9H335.9z"/>
		<path class="st0" d="M371.4,35.1c-1.6,0-3.1-0.3-4.5-0.9c-1.4-0.6-2.6-1.4-3.7-2.5c-1.1-1.1-1.9-2.3-2.5-3.7
			c-0.6-1.4-0.9-2.9-0.9-4.5c0-1.6,0.3-3.1,0.9-4.5c0.6-1.4,1.4-2.6,2.5-3.7s2.3-1.9,3.7-2.5c1.4-0.6,2.9-0.9,4.5-0.9
			c1.6,0,3.1,0.3,4.5,0.9s2.6,1.4,3.7,2.5s1.9,2.3,2.5,3.7c0.6,1.4,0.9,2.9,0.9,4.5c0,1.6-0.3,3.1-0.9,4.5c-0.6,1.4-1.4,2.6-2.5,3.7
			c-1.1,1.1-2.3,1.9-3.7,2.5C374.6,34.8,373.1,35.1,371.4,35.1z M371.4,30.3c0.8,0,1.6-0.2,2.3-0.5c0.7-0.3,1.3-0.8,1.9-1.4
			c0.5-0.6,0.9-1.3,1.2-2.1c0.3-0.8,0.4-1.7,0.4-2.6c0-1-0.1-1.8-0.4-2.6c-0.3-0.8-0.7-1.5-1.2-2.1c-0.5-0.6-1.2-1.1-1.9-1.4
			c-0.7-0.3-1.5-0.5-2.3-0.5c-0.8,0-1.6,0.2-2.3,0.5c-0.7,0.3-1.3,0.8-1.9,1.4c-0.5,0.6-0.9,1.3-1.2,2.1c-0.3,0.8-0.4,1.7-0.4,2.6
			c0,1,0.1,1.8,0.4,2.6c0.3,0.8,0.7,1.5,1.2,2.1c0.5,0.6,1.2,1.1,1.9,1.4C369.8,30.1,370.6,30.3,371.4,30.3z"/>
		<path class="st0" d="M391.9,34.8l-8.6-22.3h5.9l5.9,16.6l6-16.6h5.7l-8.7,22.3H391.9z"/>
		<path class="st0" d="M403.5,34.8l8.7-22.3h6.2l8.6,22.3H421l-1.8-5.3H411l-1.9,5.3H403.5z M412.5,25.2h5.2l-2.6-7.4L412.5,25.2z"
			/>
		<path class="st0" d="M439.1,35.1c-1.7,0-3.2-0.3-4.6-0.9c-1.4-0.6-2.7-1.4-3.7-2.4c-1.1-1-1.9-2.3-2.5-3.7
			c-0.6-1.4-0.9-2.9-0.9-4.5c0-1.6,0.3-3.1,0.9-4.5c0.6-1.4,1.4-2.6,2.5-3.6c1.1-1,2.3-1.9,3.7-2.4c1.4-0.6,3-0.9,4.6-0.9
			c1.2,0,2.4,0.2,3.5,0.5c1.1,0.4,2.2,0.8,3.2,1.5c1,0.6,1.8,1.4,2.4,2.3l-3.7,3.5c-0.7-1-1.5-1.7-2.4-2.2c-0.9-0.5-1.9-0.7-2.9-0.7
			c-0.9,0-1.7,0.2-2.4,0.5c-0.7,0.3-1.4,0.8-1.9,1.4c-0.6,0.6-1,1.3-1.3,2.1c-0.3,0.8-0.5,1.7-0.5,2.6c0,1,0.2,1.8,0.5,2.6
			c0.3,0.8,0.7,1.5,1.3,2.1c0.6,0.6,1.2,1.1,1.9,1.4c0.7,0.3,1.5,0.5,2.4,0.5c1.1,0,2-0.2,2.9-0.7c0.9-0.5,1.7-1.2,2.4-2.2l3.7,3.5
			c-0.6,0.9-1.4,1.6-2.4,2.3c-1,0.7-2,1.2-3.2,1.5C441.4,34.9,440.3,35.1,439.1,35.1z"/>
		<path class="st0" d="M451,34.8V12.5h5.5v22.3H451z"/>
		<path class="st0" d="M471.6,35.1c-1.6,0-3.1-0.3-4.5-0.9c-1.4-0.6-2.6-1.4-3.7-2.5c-1.1-1.1-1.9-2.3-2.5-3.7
			c-0.6-1.4-0.9-2.9-0.9-4.5c0-1.6,0.3-3.1,0.9-4.5c0.6-1.4,1.4-2.6,2.5-3.7s2.3-1.9,3.7-2.5c1.4-0.6,2.9-0.9,4.5-0.9
			c1.6,0,3.1,0.3,4.5,0.9s2.6,1.4,3.7,2.5s1.9,2.3,2.5,3.7c0.6,1.4,0.9,2.9,0.9,4.5c0,1.6-0.3,3.1-0.9,4.5c-0.6,1.4-1.4,2.6-2.5,3.7
			c-1.1,1.1-2.3,1.9-3.7,2.5C474.7,34.8,473.2,35.1,471.6,35.1z M471.6,30.3c0.8,0,1.6-0.2,2.3-0.5c0.7-0.3,1.3-0.8,1.9-1.4
			c0.5-0.6,0.9-1.3,1.2-2.1c0.3-0.8,0.4-1.7,0.4-2.6c0-1-0.1-1.8-0.4-2.6c-0.3-0.8-0.7-1.5-1.2-2.1c-0.5-0.6-1.2-1.1-1.9-1.4
			c-0.7-0.3-1.5-0.5-2.3-0.5c-0.8,0-1.6,0.2-2.3,0.5c-0.7,0.3-1.3,0.8-1.9,1.4c-0.5,0.6-0.9,1.3-1.2,2.1c-0.3,0.8-0.4,1.7-0.4,2.6
			c0,1,0.1,1.8,0.4,2.6c0.3,0.8,0.7,1.5,1.2,2.1c0.5,0.6,1.2,1.1,1.9,1.4C470,30.1,470.8,30.3,471.6,30.3z M468.7,9.8l4.4-4.6h6.1
			l-6.1,4.6H468.7z"/>
		<path class="st0" d="M487,34.8V12.5h5.2l9.9,13.5L502,12.5h5.2v22.3h-4.8l-10.2-13.9l0.1,13.9H487z"/>
	</g>
	<g>
		<path class="st0" d="M527,34.8V12.5h10.8c1.5,0,2.9,0.3,4.1,0.9c1.2,0.6,2.1,1.4,2.8,2.5c0.7,1.1,1,2.3,1,3.7
			c0,1.4-0.4,2.7-1.1,3.8c-0.8,1.1-1.8,1.9-3,2.5l4.7,8.9h-6.1l-4-8.2h-3.6v8.2H527z M532.4,22.3h4.8c0.8,0,1.5-0.2,2.1-0.7
			c0.5-0.5,0.8-1.1,0.8-1.9c0-0.8-0.3-1.4-0.8-1.9c-0.5-0.5-1.2-0.7-2.1-0.7h-4.8V22.3z"/>
		<path class="st0" d="M559.8,35.1c-1.6,0-3.1-0.3-4.5-0.9c-1.4-0.6-2.6-1.4-3.7-2.5c-1.1-1.1-1.9-2.3-2.5-3.7
			c-0.6-1.4-0.9-2.9-0.9-4.5c0-1.6,0.3-3.1,0.9-4.5c0.6-1.4,1.4-2.6,2.5-3.7c1.1-1.1,2.3-1.9,3.7-2.5c1.4-0.6,2.9-0.9,4.5-0.9
			c1.6,0,3.1,0.3,4.5,0.9c1.4,0.6,2.6,1.4,3.7,2.5c1.1,1.1,1.9,2.3,2.5,3.7c0.6,1.4,0.9,2.9,0.9,4.5c0,1.6-0.3,3.1-0.9,4.5
			c-0.6,1.4-1.4,2.6-2.5,3.7c-1.1,1.1-2.3,1.9-3.7,2.5C562.9,34.8,561.4,35.1,559.8,35.1z M559.8,30.3c0.8,0,1.6-0.2,2.3-0.5
			c0.7-0.3,1.3-0.8,1.9-1.4c0.5-0.6,0.9-1.3,1.2-2.1c0.3-0.8,0.4-1.7,0.4-2.6c0-1-0.1-1.8-0.4-2.6c-0.3-0.8-0.7-1.5-1.2-2.1
			c-0.5-0.6-1.2-1.1-1.9-1.4c-0.7-0.3-1.5-0.5-2.3-0.5c-0.8,0-1.6,0.2-2.3,0.5c-0.7,0.3-1.3,0.8-1.9,1.4c-0.5,0.6-0.9,1.3-1.2,2.1
			c-0.3,0.8-0.4,1.7-0.4,2.6c0,1,0.1,1.8,0.4,2.6c0.3,0.8,0.7,1.5,1.2,2.1c0.5,0.6,1.2,1.1,1.9,1.4C558.2,30.1,559,30.3,559.8,30.3z
			"/>
		<path class="st0" d="M571.7,34.8l8.7-22.3h6.2l8.6,22.3h-5.9l-1.8-5.3h-8.1l-1.9,5.3H571.7z M580.8,25.2h5.2l-2.6-7.4L580.8,25.2z
			"/>
		<path class="st0" d="M597.8,34.8V12.5h9.1c1.6,0,3,0.3,4.4,0.9c1.3,0.6,2.5,1.4,3.6,2.4c1,1,1.8,2.2,2.4,3.5
			c0.6,1.3,0.9,2.8,0.9,4.3c0,1.5-0.3,3-0.9,4.3c-0.6,1.3-1.4,2.5-2.4,3.5c-1,1-2.2,1.8-3.6,2.4c-1.3,0.6-2.8,0.9-4.4,0.9H597.8z
			 M603.2,30.1h3.6c1,0,2-0.3,2.8-0.9c0.8-0.6,1.5-1.4,2-2.3s0.7-2.1,0.7-3.3c0-1.2-0.2-2.3-0.7-3.3s-1.2-1.8-2-2.3
			c-0.8-0.6-1.8-0.9-2.8-0.9h-3.6V30.1z"/>
		<path class="st0" d="M621.6,34.8V12.5h5.5v22.3H621.6z"/>
		<path class="st0" d="M639.5,35.1c-1.8,0-3.4-0.3-5-0.9s-3.1-1.4-4.6-2.5l2.8-4c1.5,1.1,2.9,1.8,3.9,2.3c1.1,0.4,2.2,0.7,3.3,0.7
			c0.8,0,1.5-0.1,2-0.3c0.6-0.2,1-0.5,1.3-0.8c0.3-0.4,0.5-0.8,0.5-1.2c0-0.7-0.2-1.2-0.7-1.5c-0.4-0.4-1.2-0.6-2.3-0.8l-4.7-0.8
			c-1.8-0.3-3.1-1-4.1-2c-0.9-1.1-1.4-2.4-1.4-3.9c0-1.4,0.4-2.7,1.1-3.7s1.7-1.9,3-2.4c1.3-0.6,2.9-0.9,4.8-0.9
			c1.7,0,3.4,0.3,5,0.8c1.6,0.5,3,1.2,4.1,2.1l-2.8,4c-1.1-0.8-2.2-1.4-3.2-1.8c-1.1-0.4-2.2-0.6-3.4-0.6c-0.7,0-1.3,0.1-1.8,0.3
			c-0.5,0.2-0.9,0.4-1.2,0.7c-0.3,0.3-0.4,0.7-0.4,1.1c0,0.6,0.2,1,0.6,1.3c0.4,0.3,1,0.5,1.9,0.7l4.5,0.8c2.1,0.3,3.7,1.1,4.7,2.1
			c1.1,1.1,1.6,2.5,1.6,4.2c0,1.4-0.4,2.7-1.2,3.8c-0.8,1.1-1.9,2-3.3,2.6S641.5,35.1,639.5,35.1z"/>
	</g>
	<g>
		<path class="st0" d="M669.5,34.8V12.5h16.8v4.6h-11.4v4.2h8v4.5h-8v4.4h11.5v4.6H669.5z"/>
		<path class="st0" d="M688.6,34.8l8.6-11.6l-8.1-10.7h6.5l4.8,6.7l4.8-6.7h6.3l-8,10.9l8.5,11.4h-6.5l-5.3-7.5l-5.3,7.5H688.6z"/>
		<path class="st0" d="M723.5,35.1c-1.7,0-3.2-0.3-4.6-0.9c-1.4-0.6-2.7-1.4-3.7-2.4c-1.1-1-1.9-2.3-2.5-3.7
			c-0.6-1.4-0.9-2.9-0.9-4.5c0-1.6,0.3-3.1,0.9-4.5c0.6-1.4,1.4-2.6,2.5-3.6c1.1-1,2.3-1.9,3.7-2.4c1.4-0.6,3-0.9,4.6-0.9
			c1.2,0,2.4,0.2,3.5,0.5c1.1,0.4,2.2,0.8,3.2,1.5c1,0.6,1.8,1.4,2.4,2.3l-3.7,3.5c-0.7-1-1.5-1.7-2.4-2.2c-0.9-0.5-1.9-0.7-2.9-0.7
			c-0.9,0-1.7,0.2-2.4,0.5c-0.7,0.3-1.4,0.8-1.9,1.4c-0.6,0.6-1,1.3-1.3,2.1c-0.3,0.8-0.5,1.7-0.5,2.6c0,1,0.2,1.8,0.5,2.6
			c0.3,0.8,0.7,1.5,1.3,2.1c0.6,0.6,1.2,1.1,1.9,1.4c0.7,0.3,1.5,0.5,2.4,0.5c1.1,0,2-0.2,2.9-0.7c0.9-0.5,1.7-1.2,2.4-2.2l3.7,3.5
			c-0.6,0.9-1.4,1.6-2.4,2.3c-1,0.7-2,1.2-3.2,1.5C725.9,34.9,724.7,35.1,723.5,35.1z"/>
		<path class="st0" d="M735.8,34.8V12.5h16.8v4.6h-11.4v4.2h8v4.5h-8v4.4h11.5v4.6H735.8z"/>
		<path class="st0" d="M757,34.8V12.5h5.5v17.6h11v4.7H757z"/>
		<path class="st0" d="M777.7,34.8V12.5h16.8v4.6h-11.4v4.2h8v4.5h-8v4.4h11.5v4.6H777.7z"/>
		<path class="st0" d="M798.9,34.8V12.5h5.2L814,26l-0.1-13.5h5.2v22.3h-4.8L804,20.8l0.1,13.9H798.9z"/>
		<path class="st0" d="M834.7,35.1c-1.7,0-3.2-0.3-4.6-0.9c-1.4-0.6-2.7-1.4-3.7-2.4c-1.1-1-1.9-2.3-2.5-3.7
			c-0.6-1.4-0.9-2.9-0.9-4.5c0-1.6,0.3-3.1,0.9-4.5c0.6-1.4,1.4-2.6,2.5-3.6c1.1-1,2.3-1.9,3.7-2.4c1.4-0.6,3-0.9,4.6-0.9
			c1.2,0,2.4,0.2,3.5,0.5c1.1,0.4,2.2,0.8,3.2,1.5c1,0.6,1.8,1.4,2.4,2.3l-3.7,3.5c-0.7-1-1.5-1.7-2.4-2.2c-0.9-0.5-1.9-0.7-2.9-0.7
			c-0.9,0-1.7,0.2-2.4,0.5c-0.7,0.3-1.4,0.8-1.9,1.4c-0.6,0.6-1,1.3-1.3,2.1c-0.3,0.8-0.5,1.7-0.5,2.6c0,1,0.2,1.8,0.5,2.6
			c0.3,0.8,0.7,1.5,1.3,2.1c0.6,0.6,1.2,1.1,1.9,1.4c0.7,0.3,1.5,0.5,2.4,0.5c1.1,0,2-0.2,2.9-0.7c0.9-0.5,1.7-1.2,2.4-2.2l3.7,3.5
			c-0.6,0.9-1.4,1.6-2.4,2.3c-1,0.7-2,1.2-3.2,1.5C837.1,34.9,835.9,35.1,834.7,35.1z"/>
		<path class="st0" d="M846.6,34.8V12.5h5.5v22.3H846.6z"/>
		<path class="st0" d="M854.3,34.8l8.7-22.3h6.2l8.6,22.3h-5.9l-1.8-5.3h-8.1l-1.9,5.3H854.3z M863.4,25.2h5.2l-2.6-7.4L863.4,25.2z
			"/>
	</g>
</g>
<text transform="matrix(1 0 0 1 288.4013 25.9996)" class="st1 st2 st3">|</text>
<text transform="matrix(1 0 0 1 513.949 25.9996)" class="st1 st2 st3">|</text>
<text transform="matrix(1 0 0 1 656.1146 25.9996)" class="st1 st2 st3">|</text>
</svg>
