<?xml version="1.0" encoding="utf-8"?>
<!-- Generator: Adobe Illustrator 17.0.0, SVG Export Plug-In . SVG Version: 6.00 Build 0)  -->
<!DOCTYPE svg PUBLIC "-//W3C//DTD SVG 1.1//EN" "http://www.w3.org/Graphics/SVG/1.1/DTD/svg11.dtd">
<svg version="1.1" id="Layer_1" focusable="false" xmlns="http://www.w3.org/2000/svg" xmlns:xlink="http://www.w3.org/1999/xlink"
	 x="0px" y="0px" width="15px" height="15px" viewBox="298.5 388.5 15 15" enable-background="new 298.5 388.5 15 15"
	 xml:space="preserve">
<path fill="#FF6C00" d="M308.678,393.097c-0.439-2.701-1.473-4.597-2.677-4.597c-1.204,0-2.238,1.896-2.677,4.597H308.678z
	 M303.098,396c0,0.671,0.036,1.316,0.1,1.935h5.605c0.064-0.62,0.1-1.264,0.1-1.935s-0.036-1.316-0.1-1.935h-5.605
	C303.134,394.684,303.098,395.329,303.098,396z M312.919,393.097c-0.865-2.053-2.616-3.641-4.779-4.282
	c0.738,1.022,1.246,2.561,1.512,4.282H312.919z M303.86,388.815c-2.16,0.641-3.914,2.229-4.776,4.282h3.267
	C302.614,391.376,303.122,389.837,303.86,388.815L303.86,388.815z M313.243,394.065h-3.469c0.064,0.635,0.1,1.285,0.1,1.935
	s-0.036,1.3-0.1,1.935h3.466c0.166-0.62,0.26-1.264,0.26-1.935S313.406,394.684,313.243,394.065L313.243,394.065z M302.13,396
	c0-0.65,0.036-1.3,0.1-1.935h-3.469c-0.163,0.62-0.26,1.264-0.26,1.935s0.097,1.316,0.26,1.935h3.466
	C302.166,397.3,302.13,396.65,302.13,396z M303.325,398.903c0.439,2.701,1.473,4.597,2.677,4.597c1.204,0,2.238-1.896,2.677-4.597
	H303.325z M308.143,403.185c2.16-0.641,3.914-2.229,4.779-4.282h-3.267C309.389,400.624,308.881,402.163,308.143,403.185z
	 M299.084,398.903c0.865,2.053,2.616,3.641,4.779,4.282c-0.738-1.022-1.246-2.561-1.512-4.282
	C302.351,398.903,299.084,398.903,299.084,398.903z"/>
</svg>
