<?xml version="1.0" encoding="utf-8"?>
<!-- Generator: Adobe Illustrator 25.1.0, SVG Export Plug-In . SVG Version: 6.00 Build 0)  -->
<svg version="1.1" id="Capa_1" xmlns="http://www.w3.org/2000/svg" xmlns:xlink="http://www.w3.org/1999/xlink" x="0px" y="0px"
	 viewBox="0 0 15 15" style="enable-background:new 0 0 15 15;" xml:space="preserve">
<style type="text/css">
	.st0{fill:#ED7D31;}
</style>
<g>
	<path class="st0" d="M5.7,6.6h3.6c0.2,0,0.4-0.2,0.4-0.4V3.5H5.3v2.7C5.3,6.4,5.5,6.6,5.7,6.6z"/>
	<path class="st0" d="M8.4,10.2H6.6c-0.2,0-0.4,0.2-0.4,0.4v0.9h2.7v-0.9C8.8,10.4,8.6,10.2,8.4,10.2z"/>
	<path class="st0" d="M12.8,2.2c-2.9-2.9-7.7-2.9-10.6,0c-2.9,2.9-2.9,7.7,0,10.6c2.9,2.9,7.7,2.9,10.6,0
		C15.7,9.9,15.7,5.1,12.8,2.2z M12.4,11.1c0,0.7-0.6,1.3-1.3,1.3H4.7c-0.2,0-0.5-0.1-0.6-0.3l-1.3-1.3c-0.2-0.2-0.3-0.4-0.3-0.6V3.9
		c0-0.7,0.6-1.3,1.3-1.3H11c0.7,0,1.3,0.6,1.3,1.3V11.1z"/>
	<path class="st0" d="M11,3.5h-0.4v2.7c0,0.7-0.6,1.3-1.3,1.3H5.7C5,7.5,4.4,6.9,4.4,6.2V3.5H3.9c-0.2,0-0.4,0.2-0.4,0.4v5.9
		c0,0.2,0.1,0.5,0.3,0.6l0.8,0.8c0.2,0.2,0.4,0.3,0.6,0.3h0.1v-0.9c0-0.7,0.6-1.3,1.3-1.3h1.8c0.7,0,1.3,0.6,1.3,1.3v0.9H11
		c0.2,0,0.4-0.2,0.4-0.4V3.9C11.5,3.7,11.3,3.5,11,3.5z"/>
</g>
</svg>
