<?xml version="1.0" encoding="utf-8"?>
<!-- Generator: Adobe Illustrator 16.0.0, SVG Export Plug-In . SVG Version: 6.00 Build 0)  -->
<!DOCTYPE svg PUBLIC "-//W3C//DTD SVG 1.1//EN" "http://www.w3.org/Graphics/SVG/1.1/DTD/svg11.dtd">
<svg version="1.1" id="Capa_1" xmlns="http://www.w3.org/2000/svg" xmlns:xlink="http://www.w3.org/1999/xlink" x="0px" y="0px"
	 width="18px" height="17.977px" viewBox="391 391.024 18 17.977" enable-background="new 391 391.024 18 17.977"
	 xml:space="preserve">
<title>file_type_excel2</title>
<path fill="#20744A" d="M408.217,392.559h-6.513v-1.535L391,392.676v14.482l10.704,1.843v-2.274h6.513
	c0.41,0.021,0.761-0.294,0.783-0.704v-12.76C408.977,392.852,408.627,392.538,408.217,392.559z M408.319,406.14h-6.637l-0.011-1.215
	h1.599v-1.414h-1.611l-0.008-0.836h1.619v-1.414h-1.631l-0.008-0.835h1.639v-1.415h-1.645v-0.835h1.645v-1.415h-1.645v-0.835h1.645
	v-1.415h-1.645v-1.286h6.693V406.14z"/>
<rect x="404.17" y="394.509" fill="#20744A" width="2.779" height="1.415"/>
<rect x="404.17" y="396.76" fill="#20744A" width="2.779" height="1.414"/>
<rect x="404.17" y="399.01" fill="#20744A" width="2.779" height="1.414"/>
<rect x="404.17" y="401.261" fill="#20744A" width="2.779" height="1.414"/>
<rect x="404.17" y="403.512" fill="#20744A" width="2.779" height="1.414"/>
<polygon fill="#FFFFFF" points="393.794,396.588 395.174,396.509 396.042,398.893 397.066,396.411 398.446,396.332 396.771,399.717 
	398.446,403.11 396.987,403.012 396.002,400.425 395.017,402.914 393.676,402.795 395.233,399.798 "/>
</svg>
