<?xml version="1.0" encoding="utf-8"?>
<!-- Generator: Adobe Illustrator 16.0.0, SVG Export Plug-In . SVG Version: 6.00 Build 0)  -->
<!DOCTYPE svg PUBLIC "-//W3C//DTD SVG 1.1//EN" "http://www.w3.org/Graphics/SVG/1.1/DTD/svg11.dtd">
<svg version="1.1" id="Capa_1" xmlns="http://www.w3.org/2000/svg" xmlns:xlink="http://www.w3.org/1999/xlink" x="0px" y="0px"
	 width="25px" height="25px" viewBox="-3.5 -3.5 25 25" enable-background="new -3.5 -3.5 25 25" xml:space="preserve">
<path fill="#ED7D31" d="M9-3.5C2.098-3.5-3.5,2.094-3.5,9c0,6.902,5.598,12.5,12.5,12.5c6.906,0,12.5-5.598,12.5-12.5
	C21.5,2.094,15.906-3.5,9-3.5z M17.729,10.555h-4.352h-2.721H10.59v0.066v2.721v4.351H7.41v-4.351v-2.721v-0.072H7.343l-2.05,0.006
	H0.272v-3.18h5.021h2.05h0.073V7.306L7.411,5.257V0.236h3.182v5.021v2.049v0.069h0.064h2.721h4.353L17.729,10.555L17.729,10.555z"/>
</svg>
