<?xml version="1.0" encoding="utf-8"?>
<!-- Generator: Adobe Illustrator 16.0.0, SVG Export Plug-In . SVG Version: 6.00 Build 0)  -->
<!DOCTYPE svg PUBLIC "-//W3C//DTD SVG 1.1//EN" "http://www.w3.org/Graphics/SVG/1.1/DTD/svg11.dtd">
<svg version="1.1" id="Capa_1" xmlns="http://www.w3.org/2000/svg" xmlns:xlink="http://www.w3.org/1999/xlink" x="0px" y="0px"
	 width="18px" height="18px" viewBox="0 0 18 18" enable-background="new 0 0 18 18" xml:space="preserve">
<path fill="#ED7D31" d="M9,0C4.03,0,0,4.028,0,9c0,4.97,4.03,9,9,9c4.972,0,9-4.03,9-9C18,4.028,13.972,0,9,0z M15.285,10.119
	h-3.133h-1.959h-0.048v0.048v1.959v3.133h-2.29v-3.133v-1.959v-0.052H7.807l-1.476,0.004H2.716V7.83h3.615h1.476H7.86V7.78
	L7.856,6.305V2.69h2.29v3.615V7.78V7.83h0.048h1.959h3.133V10.119z"/>
</svg>
