<?xml version="1.0" encoding="utf-8"?>
<!-- Generator: Adobe Illustrator 25.1.0, SVG Export Plug-In . SVG Version: 6.00 Build 0)  -->
<svg version="1.1" id="Layer_1" xmlns:serif="http://www.serif.com/"
	 xmlns="http://www.w3.org/2000/svg" xmlns:xlink="http://www.w3.org/1999/xlink" x="0px" y="0px" viewBox="0 0 15 15"
	 style="enable-background:new 0 0 15 15;" xml:space="preserve">
<style type="text/css">
	.st0{fill-rule:evenodd;clip-rule:evenodd;fill:#ED7D31;}
</style>
<path class="st0" d="M9.7,3L4.3,8.4c0,0.1-0.1,0.2-0.1,0.3l-1.5,3.3c0,0.2,0,0.4,0.1,0.5c0.1,0.1,0.3,0.2,0.5,0.1l3-1.8
	c0.1,0,0.2-0.1,0.3-0.1L12,5.3L9.7,3L9.7,3z"/>
<path class="st0" d="M11.5,1.2l-0.9,0.9l0,0l2.3,2.3l1-1c1-1,1.4-2.6,0.8-3.1C14.1-0.3,12.5,0.2,11.5,1.2z"/>
<path class="st0" d="M0.8,15h12.9c0.4,0,0.8-0.3,0.8-0.7c0-0.3-0.4-0.7-0.8-0.7H0.8C0.4,13.7,0,14,0,14.3C0,14.7,0.4,15,0.8,15z"/>
</svg>
