<?xml version="1.0" encoding="utf-8"?>
<!-- Generator: Adobe Illustrator 25.1.0, SVG Export Plug-In . SVG Version: 6.00 Build 0)  -->
<svg version="1.1" id="Capa_1" xmlns="http://www.w3.org/2000/svg" xmlns:xlink="http://www.w3.org/1999/xlink" x="0px" y="0px"
	 viewBox="0 0 15 15" style="enable-background:new 0 0 15 15;" xml:space="preserve">
<style type="text/css">
	.st0{fill:#ED7D31;}
</style>
<g>
	<g>
		<path class="st0" d="M10.9,4.8H9.8L9.5,4C9.4,3.7,9,3.4,8.6,3.4H6.4C6,3.4,5.6,3.7,5.5,4L5.2,4.8H4.1c-0.8,0-1.5,0.7-1.5,1.5v3.9
			c0,0.8,0.7,1.5,1.5,1.5h6.8c0.8,0,1.5-0.7,1.5-1.5V6.3C12.3,5.5,11.7,4.8,10.9,4.8z M11.4,10.2c0,0.3-0.2,0.5-0.5,0.5H4.1
			c-0.3,0-0.5-0.2-0.5-0.5V6.3c0-0.3,0.2-0.5,0.5-0.5h1.1c0.4,0,0.8-0.3,0.9-0.7l0.3-0.8h2.2l0.3,0.8C9,5.5,9.4,5.8,9.8,5.8h1.1
			c0.3,0,0.5,0.2,0.5,0.5V10.2z"/>
		<path class="st0" d="M7.5,5.8c-1.2,0-2.2,1-2.2,2.2s1,2.2,2.2,2.2c1.2,0,2.2-1,2.2-2.2S8.7,5.8,7.5,5.8z M7.5,9.2
			C6.8,9.2,6.3,8.7,6.3,8c0-0.7,0.5-1.2,1.2-1.2S8.7,7.3,8.7,8C8.7,8.7,8.2,9.2,7.5,9.2z"/>
	</g>
	<path class="st0" d="M12.8,2.2c-2.9-2.9-7.7-2.9-10.6,0c-2.9,2.9-2.9,7.7,0,10.6c2.9,2.9,7.7,2.9,10.6,0
		C15.7,9.9,15.7,5.1,12.8,2.2z M12,12c-2.5,2.5-6.6,2.5-9.1,0C0.5,9.5,0.5,5.5,3,3C5.5,0.5,9.5,0.5,12,3C14.5,5.5,14.5,9.5,12,12z"
		/>
</g>
</svg>
