<?xml version="1.0" encoding="utf-8"?>
<!-- Generator: Adobe Illustrator 16.0.0, SVG Export Plug-In . SVG Version: 6.00 Build 0)  -->
<!DOCTYPE svg PUBLIC "-//W3C//DTD SVG 1.1//EN" "http://www.w3.org/Graphics/SVG/1.1/DTD/svg11.dtd">
<svg version="1.1" id="Capa_1" xmlns="http://www.w3.org/2000/svg" xmlns:xlink="http://www.w3.org/1999/xlink" x="0px" y="0px"
	 width="1436.614px" height="488.056px" viewBox="0 0 1436.614 488.056" enable-background="new 0 0 1436.614 488.056"
	 xml:space="preserve">
<g>
	<g>
		<path fill="#F7F7F8" d="M586.494,174.264c-7.186-3.208-14.341-6.039-21.274-8.421c-6.652-2.282-13.399-4.435-19.753-6.308
			c-6.855-2.166-13.325-4.407-19.281-6.693c-5.28-2.013-10.131-4.264-14.444-6.682c-1.996-1.44-3.176-3.159-3.898-5.67
			c-0.693-2.452-0.539-4.336,0.555-6.513c0.449-0.905,1.156-2.082,1.954-2.518c1.995-1.101,3.815-1.781,5.391-2.03
			c1.666-0.272,3.178-0.201,3.559-0.128c2.238,0.452,3.933,0.749,5.318,0.933c1.792,0.623,4.491,1.844,8.338,4.208
			c0.151,0.445,0.436,1.566,0.436,3.711v17.036h128.495v-17.036c0-15.7-2.582-31.017-7.66-45.505
			c-5.078-14.5-12.52-27.838-22.12-39.653c-9.487-11.67-20.918-21.78-33.975-30.042c-13.09-8.277-27.81-14.392-43.474-18.111
			c-16.364-4.188-32.801-5.666-48.81-4.409c-16.046,1.261-31.314,5.035-45.392,11.214c-14.027,6.164-26.944,14.665-38.415,25.277
			c-11.462,10.618-21.135,23.289-28.846,37.844c-8.095,15.772-12.967,32.543-14.452,49.841c-1.488,17.102,0.021,33.948,4.483,50.09
			c4.452,16.14,11.867,31.397,22.015,45.356c10.24,14.09,22.982,25.953,37.832,35.279c11.068,6.981,22.341,12.601,33.48,16.726
			c10.201,3.776,20.182,7.235,29.658,10.261c5.322,1.912,10.429,3.645,15.148,5.141c3.902,1.258,7.619,2.672,11.061,4.215
			c3.429,1.744,6.097,3.554,7.916,5.368c1.876,1.887,3.274,3.702,4.117,5.385c1.071,2.151,1.352,3.47,1.428,4.061
			c0.372,3.026,0.428,4.554,0.428,5.188c0,0.648-0.056,2.167-0.428,5.193c-0.08,0.633-0.355,1.742-1.23,3.387
			c-0.659,1.252-2,3.322-4.632,6.108c-1.565,1.659-3.912,3.156-7.242,4.593c-5.071,2.285-9.894,3.242-15.243,3.017
			c-4.753-0.229-9.086-1.683-13.25-4.46l-0.689-0.436c-0.484-0.301-3.196-2.097-8.296-8.578c-2.383-3.017-3.641-8.402-3.641-15.562
			v-17.034H362.681v17.034c0,27.446,6.363,53.137,18.898,76.329c12.556,23.235,30.353,42.417,52.916,57.035
			c12.983,8.393,26.955,14.676,41.508,18.684c14.34,3.954,28.999,5.939,43.552,5.939c11.162,0,22.495-1.15,33.717-3.435
			c11.344-2.298,22.601-6.025,33.355-11.024c27.465-12.556,49.345-31.295,65.021-55.695c15.689-24.427,23.646-51.696,23.646-81.1
			c0-29.76-7.959-57.228-23.646-81.653C635.966,205.62,614.089,186.884,586.494,174.264z"/>
	</g>
	<g>
		<polygon fill="#F7F7F8" points="824.91,295.025 962.496,295.025 962.496,166.043 824.91,166.043 824.91,137.78 994.506,137.78 
			994.506,8.766 695.938,9.401 695.938,455.076 994.506,455.076 994.506,326.097 824.91,326.097 		"/>
	</g>
	<g>
		<polygon fill="#F7F7F8" points="213.957,8.805 213.957,170.539 128.976,170.539 128.976,8.805 0,8.805 0,176.727 55.208,231.941 
			0,287.149 0,455.076 128.976,455.076 128.976,299.518 213.957,299.518 213.957,455.076 342.937,455.076 342.937,8.805 		"/>
	</g>
	<g>
		<g>
			<path fill="#F7F7F8" d="M1436.614,231.941c0-30.67-5.96-59.886-17.704-86.843c-11.67-26.747-27.699-50.423-47.658-70.375
				c-19.94-19.948-43.623-35.98-70.363-47.65c-26.97-11.752-56.181-17.713-86.852-17.713c-30.659,0-59.883,5.962-86.83,17.713
				c-26.749,11.664-50.432,27.7-70.386,47.65c-19.952,19.961-35.986,43.641-47.651,70.388
				c-11.744,26.95-17.702,56.166-17.702,86.829c0,30.668,5.958,59.883,17.702,86.829c11.654,26.731,27.692,50.414,47.651,70.387
				c19.971,19.954,43.645,35.999,70.382,47.65c26.932,11.744,56.147,17.705,86.834,17.705c12.549,0,24.936-1.031,36.825-3.057
				c7.587-1.278,15.117-2.908,22.52-4.883l29.082,41.484l106.024-73.226l-26.11-37.644c15.294-17.711,27.77-37.724,37.141-59.661
				C1430.868,290.984,1436.614,262.19,1436.614,231.941z M1187.988,321.961c-3.566-1.039-7.053-2.28-10.453-3.745
				c-11.432-4.918-21.453-11.644-29.793-19.989c-8.335-8.331-15.057-18.348-19.984-29.79c-4.85-11.257-7.311-23.54-7.311-36.499
				c0-12.584,2.461-24.685,7.311-35.944c4.941-11.475,11.701-21.632,20.1-30.187c8.305-8.459,18.291-15.239,29.671-20.151
				c11.292-4.853,23.57-7.313,36.505-7.313c12.953,0,25.231,2.461,36.512,7.312c11.38,4.907,21.371,11.694,29.682,20.153
				c8.389,8.55,15.153,18.712,20.098,30.183c4.857,11.291,7.317,23.381,7.317,35.947c0,9.806-1.433,19.324-4.267,28.288
				c-0.104,0.333-0.209,0.661-0.321,0.99l-45.822-67.019L1187.988,321.961z M1411.153,283.866l-95.431,102.254
				c-3.245,3.479-8.73,3.558-12.075,0.177l-54.106-54.689c-4.076-4.12,0.222-10.918,5.692-9.005l50.488,24.243
				c2.547,0.89,5.363,0.502,7.57-1.044l90.729-70.142C1409.396,271.894,1415.631,279.067,1411.153,283.866z"/>
		</g>
	</g>
</g>
</svg>
