<?xml version="1.0" encoding="utf-8"?>
<!-- Generator: Adobe Illustrator 25.1.0, SVG Export Plug-In . SVG Version: 6.00 Build 0)  -->
<svg version="1.1" id="Layer_1" xmlns="http://www.w3.org/2000/svg" xmlns:xlink="http://www.w3.org/1999/xlink" x="0px" y="0px"
	 viewBox="0 0 13 15" style="enable-background:new 0 0 13 15;" xml:space="preserve">
<style type="text/css">
	.st0{fill:#9A999E;}
</style>
<path class="st0" d="M9,15H4.6c-1.2,0-1.9,0-2.5-0.3C1.7,14.4,1.2,14,1,13.5c-0.3-0.6-0.3-1.3-0.3-2.5v-0.5c0-0.4,0.3-0.7,0.7-0.7
	S2,10.2,2,10.6V11c0,1,0,1.6,0.1,1.8c0.1,0.3,0.3,0.5,0.6,0.6c0.3,0.1,0.8,0.1,1.8,0.1H9c1,0,1.6,0,1.8-0.1c0.3-0.1,0.5-0.3,0.6-0.6
	c0.1-0.3,0.1-0.8,0.1-1.8V4c0-1,0-1.6-0.1-1.8c-0.1-0.3-0.3-0.5-0.6-0.6C10.6,1.4,10,1.4,9,1.4H7.2c-0.4,0-0.7-0.3-0.7-0.7
	C6.5,0.3,6.8,0,7.2,0H9c1.2,0,1.9,0,2.5,0.3C12,0.6,12.4,1,12.7,1.5C13,2.1,13,2.7,13,4V11c0,1.2,0,1.9-0.3,2.5
	c-0.3,0.5-0.7,0.9-1.2,1.2C10.9,15,10.2,15,9,15z M9.5,11.6H4.1c-0.4,0-0.7-0.3-0.7-0.7s0.3-0.7,0.7-0.7h5.5c0.4,0,0.7,0.3,0.7,0.7
	S9.9,11.6,9.5,11.6z M9.5,8.9H6.5c-0.4,0-0.7-0.3-0.7-0.7s0.3-0.7,0.7-0.7h3.1c0.4,0,0.7,0.3,0.7,0.7S9.9,8.9,9.5,8.9z M2.7,8.9
	C1.2,8.9,0,7.6,0,6.1V3.4C0,3,0.3,2.7,0.7,2.7c0.4,0,0.7,0.3,0.7,0.7v2.7c0,0.8,0.6,1.4,1.4,1.4c0.8,0,1.4-0.6,1.4-1.4V2.4
	C4.1,2.2,3.9,2,3.8,2C3.6,2,3.4,2.2,3.4,2.4v3.7c0,0.4-0.3,0.7-0.7,0.7C2.4,6.8,2,6.5,2,6.1V2.4c0-0.9,0.8-1.7,1.7-1.7
	c0.9,0,1.7,0.8,1.7,1.7v3.7C5.5,7.6,4.2,8.9,2.7,8.9z M9.5,6.1H7.2c-0.4,0-0.7-0.3-0.7-0.7s0.3-0.7,0.7-0.7h2.4
	c0.4,0,0.7,0.3,0.7,0.7S9.9,6.1,9.5,6.1z"/>
</svg>
