<?xml version="1.0" encoding="utf-8"?>
<!-- Generator: Adobe Illustrator 25.1.0, SVG Export Plug-In . SVG Version: 6.00 Build 0)  -->
<svg version="1.1" id="Capa_1" xmlns="http://www.w3.org/2000/svg" xmlns:xlink="http://www.w3.org/1999/xlink" x="0px" y="0px"
	 viewBox="0 0 8.3 15" style="enable-background:new 0 0 8.3 15;" xml:space="preserve">
<style type="text/css">
	.st0{fill:#ED7D31;}
</style>
<path class="st0" d="M4.1,0C1.9,0,0,1.9,0,4.1C0,5,0.5,6.4,1.7,8.5c0.8,1.4,1.6,2.6,1.6,2.7l0.6,0.9c0.1,0.1,0.2,0.1,0.3,0.1
	c0.1,0,0.2,0,0.3-0.1L5,11.2c0,0,0.8-1.2,1.6-2.7C7.8,6.4,8.3,5,8.3,4.1C8.3,1.9,6.4,0,4.1,0z M4.1,6.4c-1.3,0-2.3-1-2.3-2.3
	c0-1.3,1-2.3,2.3-2.3c1.3,0,2.3,1,2.3,2.3C6.4,5.4,5.4,6.4,4.1,6.4z"/>
<ellipse class="st0" cx="4.1" cy="14.1" rx="4.1" ry="0.9"/>
</svg>
