<?xml version="1.0" encoding="utf-8"?>
<!-- Generator: Adobe Illustrator 25.1.0, SVG Export Plug-In . SVG Version: 6.00 Build 0)  -->
<svg version="1.1" id="Layer_1" xmlns="http://www.w3.org/2000/svg" xmlns:xlink="http://www.w3.org/1999/xlink" x="0px" y="0px"
	 viewBox="0 0 15 15" style="enable-background:new 0 0 15 15;" xml:space="preserve">
<style type="text/css">
	.st0{fill-rule:evenodd;clip-rule:evenodd;}
</style>
<g>
	<path class="st0" d="M8.8,13.1c0.6-0.4,1-1.2,0.9-2.1C9.6,9.8,8.6,9,7.4,9H5.9C5.5,9,5.2,9.3,5.2,9.7v4.7c0,0.4,0.3,0.7,0.7,0.7
		h0.2c0.4,0,0.7-0.3,0.7-0.7v-0.8h0.8l0.6,1.1C8.2,14.9,8.4,15,8.7,15h0c0.5,0,0.8-0.5,0.6-1L8.8,13.1z M7.5,12H6.7v-1.5h0.8
		c0.4,0,0.8,0.3,0.8,0.8C8.2,11.7,7.9,12,7.5,12z"/>
	<path class="st0" d="M14.2,13.5h-1.9c-0.2,0-0.4-0.2-0.4-0.4V9.7C12,9.3,11.7,9,11.2,9c-0.4,0-0.7,0.3-0.7,0.7v3.7v0.7
		c0,0.4,0.3,0.7,0.7,0.7H12h2.2c0.4,0,0.7-0.3,0.7-0.7S14.7,13.5,14.2,13.5"/>
	<path class="st0" d="M4.5,9.7v3.1c0,1.3-1.1,2.3-2.4,2.2C0.9,14.9,0,13.8,0,12.6v-3C0,9.3,0.3,9,0.7,9h0.2c0.4,0,0.7,0.3,0.7,0.7
		v3.1c0,0.4,0.3,0.7,0.7,0.7c0.4,0,0.7-0.3,0.7-0.7V9.7C3,9.3,3.3,9,3.7,9h0.2C4.2,9,4.5,9.3,4.5,9.7"/>
</g>
<path class="st0" d="M10.3,5.3c0.7-0.5,0.7-1.7,0-2.1L5.8,0.4C5-0.1,4.2,0.5,4.2,1.4V7C4.2,8,5,8.5,5.8,8.1L10.3,5.3z"/>
</svg>
