<?xml version="1.0" encoding="utf-8"?>
<!-- Generator: Adobe Illustrator 25.1.0, SVG Export Plug-In . SVG Version: 6.00 Build 0)  -->
<svg version="1.1" id="Capa_1" xmlns="http://www.w3.org/2000/svg" xmlns:xlink="http://www.w3.org/1999/xlink" x="0px" y="0px"
	 viewBox="0 0 1436.6 488.1" style="enable-background:new 0 0 1436.6 488.1;" xml:space="preserve">
<style type="text/css">
	.st0{fill:#F7F7F8;}
</style>
<g>
	<path class="st0" d="M137,207.6c7.6-3.1,16.2-4.7,25.6-4.7c13.1,0,25.7,2.3,37.4,6.9c11.9,4.7,22.9,11.5,32.7,20.5l12.6,11.5
		l46.7-52.4l-11.9-10c-14.6-12.3-30.6-21.5-47.4-27.3c-16.9-5.8-36-8.8-57-8.8c-20.1,0-39.1,3.8-56.4,11.4
		c-17.9,7.8-33.2,18.7-45.6,32.5c-12.6,14.1-21.1,30.5-25.2,48.5c-5,22.3-1.7,40.5,9.9,54.2c10.8,12.7,28.8,21.3,55.2,26.1l40,7
		c22.8,4.1,31.1,9.4,34,12.1c2.3,2.2,4.7,6,2.6,15.7c-1.4,6.3-4.2,11.4-8.9,16.2c-5.3,5.4-11.9,9.7-20.3,13
		c-8.9,3.5-18.9,5.3-29.7,5.3c-14.1,0-26.4-2.6-36.5-7.6c-10.6-5.3-21.6-14.6-32.6-27.7L51.2,337L0,385.2l9.9,11.5
		c13.8,16.1,29.6,28.3,46.8,36.4c17.5,8.2,37.8,12.3,60.3,12.3c21.4,0,41.8-4,60.6-11.8c19.3-8,36-19.4,49.5-33.7
		c14-14.9,23.2-31.9,27.4-50.6c5.5-24.7,1.7-44.5-11.5-59c-12.1-13.3-32.5-22.4-62.3-28l-39.9-7l-0.2,0c-17.6-2.9-24.1-7.3-26.4-9.7
		c-1.9-2-3.9-5.2-2.2-12.9c1.2-5.3,3.6-9.7,7.5-13.7C124.2,214.3,129.8,210.5,137,207.6z"/>
	<path class="st0" d="M614.9,188.1c-5.6-14.1-15.5-25.3-29.2-33.3c-13.4-7.7-30.2-11.6-49.9-11.6H409l-67.5,301h65.7l21.2-94.6l0,0
		l21.9-97.8l0,0l10.4-46.4h58.8c12.9,0,21.9,3,27.6,9.2c5.2,5.7,6.5,13.2,4.2,23.5c-2.3,10.1-6.9,17.4-14.7,23.1
		c-8.5,6.2-18.8,9.2-31.7,9.2h-38.6l15.2,60.7h0.1l28.3,113h72.8l-32.4-125.4c13.2-6.2,25.1-14.4,35.4-24.6
		c15.9-15.7,26.4-34.7,31.3-56.5C621.3,219.1,620.6,202.4,614.9,188.1z"/>
	<polygon class="st0" points="678.7,323.4 783.8,323.4 797.7,261.5 692.6,261.5 705.2,205.5 856.7,205.5 870.6,143.2 653.5,143.2 
		586,444.3 804.7,444.3 818.6,382 665.6,382 	"/>
	<polygon class="st0" points="993.1,206.4 961.7,206.4 813.6,445.4 841.2,445.4 886.4,370.3 899.3,349.4 971,230.3 989.7,349.4 
		992.9,370.3 1004.4,445.4 1032.7,445.4 	"/>
	<path class="st0" d="M479.6,55.9L343.5,201.7c-4.6,5-12.4,5.1-17.2,0.3l-77.1-78c-5.8-5.9,0.3-15.6,8.1-12.8l72,34.6
		c3.6,1.3,7.6,0.7,10.8-1.5l129.4-100C477.1,38.8,486,49,479.6,55.9z"/>
	<path class="st0" d="M343.5,213.1c-4.6,5-12.4,5.1-17.2,0.3l-23.6-23.8l-57.1,254.7h65.7l58-258.8L343.5,213.1z"/>
	<path class="st0" d="M1251.6,239.7c-3.9-10.6-10.9-18.8-20.9-24.6c-10.1-5.8-22.9-8.7-38.3-8.7h-98.7l-53.6,239h26.3l13.2-58.9
		l8.7-38.7l5-22.5l7.6-33.8l13.9-61.8h69.3c16.6,0,28.6,4.2,36.1,12.6c7.4,8.4,9.5,20,6.2,34.8c-3.3,14.8-10.6,26.5-21.9,35.2
		c-11.3,8.6-25.2,13-41.8,13h-0.8l-27,22.1l-0.1,0.5h26c15.5,0,29.5-2.9,42.2-8.7c12.7-5.8,23.3-14,32-24.8
		c8.7-10.7,14.6-23.1,17.7-37.2C1255.8,262.7,1255.5,250.3,1251.6,239.7z"/>
	<path class="st0" d="M1433.4,239.7c-3.9-10.6-10.9-18.8-20.9-24.6c-10.1-5.8-22.9-8.7-38.3-8.7h-98.7l-53.6,239h26.3l21.9-97.6l0,0
		l5-22.5l0,0l21.4-95.6h69.3c16.6,0,28.6,4.2,36.1,12.6c7.4,8.4,9.5,20,6.2,34.8c-3.3,14.8-10.6,26.5-21.9,35.2
		c-11.3,8.6-25.2,13-41.8,13h-0.8l-27,22.1l-0.1,0.5h26c15.5,0,29.5-2.9,42.2-8.7c12.7-5.8,23.3-14,32-24.8
		c8.7-10.7,14.6-23.1,17.7-37.2C1437.6,262.7,1437.3,250.3,1433.4,239.7z"/>
	<path class="st0" d="M329.2,134.8c3.6,1.3,7.6,0.7,10.8-1.5l46.2-35.7L337,113.2l-22.3,7.8l-0.8,6.4L329.2,134.8z"/>
</g>
</svg>
