<?xml version="1.0" encoding="utf-8"?>
<!-- Generator: Adobe Illustrator 25.1.0, SVG Export Plug-In . SVG Version: 6.00 Build 0)  -->
<svg version="1.1" id="Capa_1" xmlns="http://www.w3.org/2000/svg" xmlns:xlink="http://www.w3.org/1999/xlink" x="0px" y="0px"
	 viewBox="0 0 793 237" style="enable-background:new 0 0 793 237;" xml:space="preserve">
<style type="text/css">
	.st0{fill:#407EC9;}
	.st1{fill:#586770;}
	.st2{fill:#F7A823;}
</style>
<g>
	<path class="st0" d="M83.7,99.2c4.1-1.7,8.7-2.5,13.8-2.5c7.1,0,13.8,1.2,20.1,3.7c6.4,2.5,12.3,6.2,17.6,11l6.8,6.2l25.1-28.2
		l-6.4-5.4c-7.9-6.6-16.5-11.6-25.5-14.7c-9.1-3.1-19.4-4.7-30.7-4.7c-10.8,0-21,2.1-30.4,6.1c-9.6,4.2-17.9,10.1-24.5,17.5
		c-6.8,7.6-11.4,16.4-13.5,26.1c-2.7,12-0.9,21.8,5.3,29.2c5.8,6.9,15.5,11.4,29.7,14.1l21.5,3.8c12.3,2.2,16.7,5,18.3,6.5
		c1.3,1.2,2.6,3.2,1.4,8.4c-0.8,3.4-2.3,6.1-4.8,8.7c-2.8,2.9-6.4,5.2-10.9,7c-4.8,1.9-10.2,2.9-16,2.9c-7.6,0-14.2-1.4-19.7-4.1
		c-5.7-2.9-11.6-7.9-17.6-14.9l-5.8-6.9L10,194.7l5.3,6.2c7.4,8.7,15.9,15.2,25.2,19.6c9.4,4.4,20.3,6.6,32.4,6.6
		c11.5,0,22.5-2.1,32.6-6.3c10.4-4.3,19.4-10.4,26.6-18.1c7.5-8,12.5-17.2,14.8-27.2c3-13.3,0.9-24-6.2-31.7
		c-6.5-7.1-17.5-12.1-33.5-15.1l-21.5-3.8l-0.1,0c-9.5-1.5-13-3.9-14.2-5.2c-1-1.1-2.1-2.8-1.2-6.9c0.6-2.8,1.9-5.2,4-7.4
		C76.8,102.8,79.9,100.8,83.7,99.2z"/>
	<path class="st0" d="M340.8,88.7c-3-7.6-8.3-13.6-15.7-17.9c-7.2-4.2-16.2-6.3-26.8-6.3h-68.2l-36.3,162h35.3l11.4-50.9l0,0
		l11.8-52.6l0,0l5.6-25h31.6c6.9,0,11.8,1.6,14.9,5c2.8,3.1,3.5,7.1,2.3,12.6c-1.2,5.4-3.7,9.4-7.9,12.4c-4.5,3.3-10.1,5-17.1,5
		h-20.8l8.2,32.7h0l15.2,60.8h39.2l-17.4-67.5c7.1-3.3,13.5-7.7,19-13.2c8.6-8.5,14.2-18.7,16.9-30.4
		C344.3,105.4,343.9,96.4,340.8,88.7z"/>
	<polygon class="st0" points="375.2,161.5 431.7,161.5 439.2,128.2 382.7,128.2 389.4,98.1 470.9,98.1 478.5,64.6 361.6,64.6 
		325.3,226.5 442.9,226.5 450.5,193 368.1,193 	"/>
	<polygon class="st1" points="544.4,98.6 527.5,98.6 447.8,227.1 462.6,227.1 486.9,186.7 493.9,175.5 532.5,111.4 542.5,175.5 
		544.2,186.7 550.4,227.1 565.7,227.1 	"/>
	<path class="st2" d="M268,17.6L194.8,96c-2.5,2.7-6.7,2.7-9.3,0.1l-41.5-42c-3.1-3.2,0.2-8.4,4.4-6.9l38.7,18.6
		c2,0.7,4.1,0.4,5.8-0.8l69.6-53.8C266.7,8.4,271.5,13.9,268,17.6z"/>
	<path class="st0" d="M194.8,102.1c-2.5,2.7-6.7,2.7-9.3,0.1l-12.7-12.8l-30.7,137.1h35.3l31.2-139.2L194.8,102.1z"/>
	<path class="st1" d="M683.4,116.5c-2.1-5.7-5.8-10.1-11.3-13.2s-12.3-4.7-20.6-4.7h-53.1l-28.8,128.6h14.1l7.1-31.7l4.7-20.8
		l2.7-12.1l4.1-18.2l7.5-33.3h37.3c8.9,0,15.4,2.3,19.4,6.8c4,4.5,5.1,10.8,3.3,18.7c-1.8,8-5.7,14.3-11.8,18.9
		c-6.1,4.7-13.6,7-22.5,7h-0.5l-14.5,11.9l-0.1,0.2h14c8.3,0,15.9-1.6,22.7-4.7c6.8-3.1,12.6-7.6,17.2-13.3c4.7-5.8,7.8-12.4,9.5-20
		C685.7,128.9,685.5,122.2,683.4,116.5z"/>
	<path class="st1" d="M781.3,116.5c-2.1-5.7-5.8-10.1-11.3-13.2s-12.3-4.7-20.6-4.7h-53.1l-28.8,128.6h14.1l11.8-52.5l0,0l2.7-12.1
		l0,0l11.5-51.4h37.3c8.9,0,15.4,2.3,19.4,6.8c4,4.5,5.1,10.8,3.3,18.7c-1.8,8-5.7,14.3-11.8,18.9c-6.1,4.7-13.6,7-22.5,7h-0.5
		l-14.5,11.9l-0.1,0.2h14c8.3,0,15.9-1.6,22.7-4.7c6.8-3.1,12.6-7.6,17.2-13.3c4.7-5.8,7.8-12.4,9.5-20
		C783.5,128.9,783.3,122.2,781.3,116.5z"/>
	<path class="st1" d="M187.2,60c2,0.7,4.1,0.4,5.8-0.8L217.8,40l-26.5,8.4l-12,4.2l-0.5,3.4L187.2,60z"/>
</g>
</svg>
