<?xml version="1.0" encoding="utf-8"?>
<!-- Generator: Adobe Illustrator 16.0.0, SVG Export Plug-In . SVG Version: 6.00 Build 0)  -->
<!DOCTYPE svg PUBLIC "-//W3C//DTD SVG 1.1//EN" "http://www.w3.org/Graphics/SVG/1.1/DTD/svg11.dtd">
<svg version="1.1" id="Capa_1" xmlns="http://www.w3.org/2000/svg" xmlns:xlink="http://www.w3.org/1999/xlink" x="0px" y="0px"
	 width="792.982px" height="370.175px" viewBox="0 0 792.982 370.175" enable-background="new 0 0 792.982 370.175"
	 xml:space="preserve">
<g>
	<path fill="#9A999E" d="M29.127,328.74c-4.274-1.434-7.735-3.475-10.387-6.127c-2.653-2.646-3.979-5.938-3.979-9.854
		c0-3.852,1.376-7.15,4.127-9.916c2.754-2.77,6.093-4.146,10.013-4.146c3.868,0,7.188,1.369,9.952,4.107
		c1.56,1.51,2.863,3.908,3.921,7.201l-7.089,2.791c-0.854-2.314-1.634-3.822-2.339-4.525c-1.229-1.205-2.714-1.811-4.445-1.811
		c-1.763,0-3.257,0.605-4.487,1.828c-1.231,1.223-1.85,2.707-1.85,4.471c0,1.758,0.615,3.256,1.85,4.48
		c1.382,1.357,3.294,2.604,5.729,3.73c4.729,1.533,8.734,3.947,12.027,7.238c3.696,3.645,5.541,8.066,5.541,13.271
		c0,5.199-1.841,9.646-5.521,13.326c-3.682,3.68-8.109,5.521-13.287,5.521c-5.201,0-9.642-1.852-13.311-5.543
		c-2.939-2.939-4.803-6.994-5.58-12.182l7.577-2.75c0.479,4.447,1.646,7.605,3.508,9.461c2.16,2.164,4.764,3.244,7.806,3.244
		c3.04,0,5.643-1.08,7.802-3.244c2.163-2.158,3.245-4.77,3.245-7.838c0-3.041-1.082-5.645-3.245-7.807
		C34.642,331.617,32.117,329.972,29.127,328.74z"/>
	<path fill="#9A999E" d="M63.847,299.373v60.318h-7.803v-60.318H63.847z"/>
	<path fill="#9A999E" d="M91.294,328.74c-4.271-1.434-7.737-3.475-10.388-6.127c-2.651-2.646-3.979-5.938-3.979-9.854
		c0-3.852,1.376-7.15,4.131-9.916c2.75-2.77,6.09-4.146,10.011-4.146c3.872,0,7.188,1.369,9.954,4.107
		c1.557,1.51,2.862,3.908,3.92,7.201l-7.09,2.791c-0.854-2.314-1.636-3.822-2.335-4.525c-1.233-1.205-2.716-1.811-4.449-1.811
		c-1.76,0-3.255,0.605-4.486,1.828c-1.229,1.223-1.848,2.707-1.848,4.471c0,1.758,0.615,3.256,1.848,4.48
		c1.382,1.357,3.293,2.604,5.731,3.73c4.724,1.533,8.729,3.947,12.021,7.238c3.696,3.645,5.544,8.066,5.544,13.271
		c0,5.199-1.843,9.646-5.521,13.326c-3.684,3.68-8.111,5.521-13.289,5.521c-5.204,0-9.64-1.852-13.31-5.543
		c-2.94-2.939-4.801-6.994-5.578-12.182l7.576-2.75c0.479,4.447,1.646,7.605,3.508,9.461c2.16,2.164,4.763,3.244,7.804,3.244
		c3.04,0,5.642-1.08,7.803-3.244c2.163-2.158,3.243-4.77,3.243-7.838c0-3.041-1.08-5.645-3.243-7.807
		C96.81,331.617,94.283,329.972,91.294,328.74z"/>
	<path fill="#9A999E" d="M135.592,307.175v52.516h-7.843v-52.516h-14.061v-7.803h35.964v7.803H135.592z"/>
	<path fill="#9A999E" d="M189.691,299.373v7.805h-24.694v18.436h24.694v7.809h-24.694v18.436h24.694v7.842h-32.497v-60.322h32.497
		V299.373L189.691,299.373z"/>
	<path fill="#9A999E" d="M209.031,299.373l19.563,33.813l19.49-33.813h7.129v60.318h-7.806v-43.584l-18.813,32.574l-18.888-32.574
		v43.584H201.9v-60.318H209.031z"/>
	<path fill="#9A999E" d="M290.767,299.373l21.938,60.318h-8.293l-7.767-21.338H280.66l-7.729,21.338h-8.334l21.943-60.318H290.767z
		 M293.821,330.548l-5.167-14.139l-5.126,14.139H293.821z"/>
	<path fill="#9A999E" d="M352.672,299.373c9.802,0.051,17.442,2.826,22.922,8.33c6.005,6.059,9.013,13.334,9.013,21.828
		c0,8.521-3.008,15.797-9.013,21.828c-5.479,5.504-13.12,8.285-22.922,8.332h-5.729v-60.318H352.672z M354.745,307.326v44.451
		c6.206,0,11.296-1.998,15.27-5.996c4.476-4.473,6.709-9.891,6.709-16.248c0-6.334-2.233-11.748-6.709-16.25
		C366.041,309.314,360.951,307.326,354.745,307.326z"/>
	<path fill="#9A999E" d="M426.563,299.373v7.805h-24.693v18.436h24.693v7.809h-24.693v18.436h24.693v7.842h-32.498v-60.322h32.498
		V299.373z"/>
	<path fill="#9A999E" d="M514.781,351.437c-6.205,5.932-13.308,8.896-21.301,8.896c-8.521,0-15.785-3.008-21.791-9.014
		c-6.007-6.01-9.011-13.271-9.011-21.791c0-8.494,3.004-15.762,9.011-21.793c6.006-6.027,13.27-9.046,21.791-9.046
		c7.969,0,15.52,3.257,22.659,9.763l-5.846,5.314c-5.383-4.773-10.981-7.164-16.813-7.164c-6.312,0-11.705,2.24-16.193,6.713
		c-4.482,4.479-6.727,9.879-6.727,16.213c0,6.355,2.239,11.775,6.727,16.25c4.488,4.473,9.885,6.711,16.193,6.711
		c5.43,0,9.928-1.436,13.498-4.299V329.98h7.803V351.437L514.781,351.437z"/>
	<path fill="#9A999E" d="M559.003,299.373v7.805h-24.69v18.436h24.69v7.809h-24.69v18.436h24.69v7.842h-32.498v-60.322h32.498
		V299.373z"/>
	<path fill="#9A999E" d="M584.718,328.74c-4.271-1.434-7.737-3.475-10.389-6.127c-2.65-2.646-3.979-5.938-3.979-9.854
		c0-3.852,1.379-7.15,4.129-9.916c2.753-2.77,6.089-4.146,10.011-4.146c3.871,0,7.188,1.369,9.953,4.107
		c1.559,1.51,2.864,3.908,3.92,7.201l-7.088,2.791c-0.854-2.314-1.632-3.822-2.341-4.525c-1.229-1.205-2.711-1.811-4.444-1.811
		c-1.761,0-3.256,0.605-4.484,1.828c-1.229,1.223-1.848,2.707-1.848,4.471c0,1.758,0.614,3.256,1.848,4.48
		c1.381,1.357,3.291,2.604,5.729,3.73c4.725,1.533,8.735,3.947,12.026,7.238c3.691,3.645,5.543,8.066,5.543,13.271
		c0,5.199-1.84,9.646-5.521,13.326c-3.682,3.68-8.115,5.521-13.291,5.521c-5.201,0-9.639-1.852-13.312-5.543
		c-2.938-2.939-4.803-6.994-5.577-12.182l7.577-2.75c0.478,4.447,1.646,7.605,3.507,9.461c2.159,2.164,4.76,3.244,7.805,3.244
		c3.039,0,5.645-1.08,7.803-3.244c2.162-2.158,3.246-4.77,3.246-7.838c0-3.041-1.084-5.645-3.246-7.807
		C590.234,331.617,587.707,329.972,584.718,328.74z"/>
	<path fill="#9A999E" d="M629.013,307.175v52.516h-7.842v-52.516h-14.063v-7.803h35.969v7.803H629.013z"/>
	<path fill="#9A999E" d="M659.177,299.373v60.318h-7.809v-60.318H659.177z"/>
	<path fill="#9A999E" d="M723.041,307.628c6.029,6.027,9.045,13.309,9.045,21.828c0,8.518-3.016,15.795-9.045,21.824
		c-6.035,6.031-13.311,9.053-21.83,9.053c-8.521,0-15.795-3.02-21.828-9.053c-6.033-6.029-9.049-13.311-9.049-21.824
		c0-8.521,3.016-15.801,9.049-21.828c6.033-6.035,13.312-9.047,21.828-9.047C709.73,298.582,717.005,301.593,723.041,307.628z
		 M701.21,306.458c-6.358,0-11.781,2.242-16.268,6.729c-4.49,4.488-6.73,9.908-6.73,16.271c0,6.354,2.248,11.783,6.752,16.283
		c4.496,4.498,9.912,6.748,16.246,6.748c6.359,0,11.781-2.25,16.271-6.748c4.483-4.5,6.729-9.932,6.729-16.283
		c0-6.361-2.242-11.781-6.729-16.271C712.992,308.703,707.57,306.458,701.21,306.458z M703.511,285.119h9.5l-10.258,10.521h-7.424
		L703.511,285.119z"/>
	<path fill="#9A999E" d="M742.492,299.373h7.123l24.885,43.055v-43.055h7.844v60.318h-6.826l-25.221-43.584v43.584h-7.805V299.373z"
		/>
</g>
<g>
	<path fill="#58167D" d="M325.57,103.604c-3.866-1.726-7.716-3.249-11.446-4.531c-3.579-1.229-7.209-2.386-10.628-3.394
		c-3.688-1.165-7.169-2.371-10.374-3.601c-2.841-1.083-5.451-2.294-7.771-3.595c-1.074-0.775-1.709-1.7-2.098-3.051
		c-0.373-1.319-0.29-2.333,0.299-3.504c0.241-0.487,0.622-1.12,1.051-1.354c1.073-0.592,2.053-0.958,2.9-1.092
		c0.896-0.146,1.71-0.108,1.915-0.069c1.204,0.243,2.116,0.403,2.861,0.502c0.964,0.335,2.416,0.992,4.486,2.264
		c0.081,0.24,0.234,0.843,0.234,1.997v9.166h69.136v-9.166c0-8.447-1.389-16.688-4.121-24.483
		c-2.732-7.802-6.736-14.978-11.901-21.335c-5.104-6.279-11.255-11.719-18.28-16.164c-7.043-4.454-14.963-7.744-23.391-9.745
		c-8.805-2.253-17.648-3.048-26.262-2.372c-8.634,0.679-16.849,2.709-24.423,6.034c-7.547,3.316-14.497,7.89-20.669,13.6
		c-6.167,5.713-11.371,12.53-15.521,20.362c-4.355,8.486-6.977,17.509-7.775,26.816c-0.801,9.202,0.011,18.266,2.412,26.951
		c2.396,8.684,6.385,16.893,11.845,24.403c5.51,7.581,12.365,13.964,20.355,18.982c5.955,3.756,12.021,6.78,18.014,8.999
		c5.488,2.032,10.858,3.893,15.957,5.521c2.863,1.029,5.611,1.961,8.15,2.766c2.1,0.677,4.1,1.438,5.951,2.268
		c1.845,0.938,3.28,1.912,4.259,2.888c1.01,1.015,1.762,1.992,2.215,2.897c0.576,1.158,0.728,1.867,0.769,2.185
		c0.2,1.628,0.23,2.45,0.23,2.791c0,0.349-0.03,1.166-0.23,2.794c-0.043,0.341-0.191,0.938-0.662,1.823
		c-0.354,0.673-1.076,1.787-2.492,3.286c-0.842,0.894-2.104,1.699-3.896,2.472c-2.729,1.229-5.323,1.746-8.201,1.623
		c-2.558-0.123-4.889-0.904-7.129-2.398l-0.371-0.234c-0.261-0.162-1.72-1.129-4.464-4.615c-1.282-1.623-1.959-4.521-1.959-8.373
		v-9.165h-69.396v9.165c0,14.768,3.424,28.589,10.168,41.068c6.756,12.502,16.331,22.822,28.471,30.688
		c6.985,4.517,14.503,7.896,22.333,10.054c7.716,2.127,15.603,3.194,23.433,3.194c6.006,0,12.104-0.619,18.142-1.848
		c6.104-1.236,12.16-3.242,17.946-5.932c14.777-6.756,26.55-16.838,34.984-29.967c8.441-13.144,12.723-27.814,12.723-43.635
		c0-16.012-4.282-30.791-12.723-43.933C352.188,120.475,340.418,110.394,325.57,103.604z"/>
</g>
<g>
	<polygon fill="#58167D" points="453.849,168.579 527.876,168.579 527.876,99.181 453.849,99.181 453.849,83.974 545.099,83.974 
		545.099,14.559 384.456,14.9 384.456,254.693 545.099,254.693 545.099,185.296 453.849,185.296 	"/>
</g>
<g>
	<polygon fill="#58167D" points="125.13,14.58 125.13,101.6 79.406,101.6 79.406,14.58 10.012,14.58 10.012,104.929 39.716,134.637 
		10.012,164.341 10.012,254.693 79.406,254.693 79.406,170.996 125.13,170.996 125.13,254.693 194.526,254.693 194.526,14.58 	"/>
</g>
<path fill="#58167D" d="M782.972,134.637c0-16.502-3.207-32.221-9.524-46.725c-6.279-14.391-14.904-27.13-25.644-37.865
	c-10.729-10.733-23.471-19.359-37.858-25.638c-14.511-6.323-30.228-9.53-46.729-9.53c-16.496,0-32.221,3.208-46.719,9.53
	c-14.394,6.276-27.135,14.904-37.871,25.638c-10.734,10.74-19.361,23.481-25.639,37.872c-6.318,14.5-9.523,30.219-9.523,46.717
	c0,16.501,3.205,32.22,9.523,46.718c6.271,14.382,14.899,27.125,25.639,37.871c10.746,10.735,23.481,19.368,37.869,25.64
	c14.49,6.317,30.209,9.524,46.721,9.524c6.752,0,13.416-0.556,19.813-1.646c4.082-0.688,8.135-1.563,12.117-2.627l15.646,22.32
	l57.047-39.398l-14.049-20.254c8.229-9.529,14.94-20.297,19.981-32.1C779.88,166.404,782.972,150.912,782.972,134.637z
	 M649.201,183.071c-1.92-0.56-3.795-1.228-5.625-2.016c-6.15-2.646-11.543-6.264-16.029-10.755
	c-4.484-4.482-8.102-9.872-10.752-16.028c-2.609-6.057-3.934-12.665-3.934-19.638c0-6.771,1.323-13.281,3.934-19.339
	c2.658-6.174,6.295-11.639,10.814-16.242c4.467-4.551,9.84-8.199,15.963-10.842c6.076-2.611,12.682-3.935,19.643-3.935
	c6.969,0,13.574,1.324,19.646,3.934c6.123,2.64,11.498,6.292,15.969,10.843c4.514,4.601,8.154,10.068,10.813,16.24
	c2.613,6.075,3.938,12.58,3.938,19.341c0,5.276-0.771,10.397-2.297,15.22c-0.056,0.179-0.111,0.356-0.172,0.533l-24.654-36.059
	L649.201,183.071z M769.273,162.574l-51.347,55.017c-1.746,1.871-4.696,1.914-6.498,0.095l-29.11-29.425
	c-2.193-2.217,0.119-5.875,3.063-4.844l27.166,13.043c1.369,0.479,2.884,0.27,4.072-0.563l48.816-37.739
	C768.328,156.133,771.681,159.992,769.273,162.574z"/>
</svg>
