<?xml version="1.0" encoding="utf-8"?>
<!-- Generator: Adobe Illustrator 16.0.0, SVG Export Plug-In . SVG Version: 6.00 Build 0)  -->
<!DOCTYPE svg PUBLIC "-//W3C//DTD SVG 1.1//EN" "http://www.w3.org/Graphics/SVG/1.1/DTD/svg11.dtd">
<svg version="1.1" id="Capa_1" xmlns="http://www.w3.org/2000/svg" xmlns:xlink="http://www.w3.org/1999/xlink" x="0px" y="0px"
	 width="1392.956px" height="256.956px" viewBox="0 0 1392.956 256.956" enable-background="new 0 0 1392.956 256.956"
	 xml:space="preserve">
<g id="Desktop">
	<g id="_x30_2---We-are-Roadis" transform="translate(-366 -158)">
		<g id="logo" transform="translate(366 158)">
			<path id="Fill-1" fill="#5079C9" d="M417.213,117.072c0.46-5.875-0.106-11.781-1.692-17.453
				c-1.465-5.204-4.047-10.023-7.571-14.136c-3.654-4.154-8.222-7.407-13.356-9.488c-5.431-2.297-11.679-3.467-18.733-3.467
				c-8.511-0.095-16.907,1.86-24.496,5.697c-7.342,3.727-13.916,8.83-19.339,15.021c-5.454,6.223-9.814,13.343-13.115,21.411
				c-3.226,7.811-5.18,16.096-5.804,24.517c-0.431,6.221,0.136,12.045,1.718,17.448c1.54,5.427,4.059,10.144,7.557,14.157
				c3.493,4.042,7.938,7.2,13.367,9.509c5.411,2.298,11.759,3.445,19.066,3.445c8.43,0.106,16.765-1.793,24.314-5.542
				c7.298-3.647,13.799-8.692,19.151-14.831c5.453-6.229,9.816-13.355,13.114-21.404
				C414.684,133.888,416.635,125.586,417.213,117.072z M342.59,256.955c-19.396,0-36.381-2.719-50.92-8.108
				c-14.547-5.417-26.546-13.071-36.016-22.971c-9.502-9.992-16.56-22.065-20.619-35.244c-4.331-13.58-5.901-28.524-4.779-44.871
				c1.27-19.743,6.202-39.072,14.542-57c8.02-17.341,19.19-33.03,32.959-46.278c13.653-13.12,29.819-23.496,48.471-31.082
				C344.874,3.82,365.254,0,387.354,0c19.618,0,36.704,2.712,51.256,8.131c14.545,5.413,26.571,13.051,36.026,22.951
				c9.505,10,16.563,22.057,20.635,35.241c4.3,13.591,5.886,28.54,4.761,44.891c-1.274,19.711-6.14,39.034-14.376,56.988
				c-7.943,17.383-19.125,33.082-32.955,46.281c-14.12,13.319-30.629,23.88-48.659,31.07
				C385.394,253.142,364.913,256.955,342.59,256.955z"/>
			<path id="Fill-4" fill="#5079C9" d="M634.95,98.458l-19.406,60.158h38.479L634.96,98.458H634.95z M593.813,13.524h84.672
				l92.377,243.431h-86.689l-12.403-35.767h-75.298l-11.728,35.767h-84.36l93.414-243.431H593.813z"/>
			<path id="Fill-5" fill="#5079C9" d="M874.429,82.978V186.47h14.715c18.693,0,33.068-4.16,43.079-12.493
				c10.048-8.364,15.052-21.99,15.052-40.977c0-15.743-5.004-28.023-15.052-36.828c-10.011-8.793-23.375-13.194-40.079-13.194
				H874.429z M797.903,256.955V13.524h88.206c18.736,0,36.602,1.904,53.653,5.666c17.038,3.794,32.055,10.324,45.117,19.618
				c13.035,9.272,23.438,21.593,31.234,36.956c7.807,15.362,11.704,34.728,11.704,58.096c0,21.329-3.726,39.786-11.203,55.369
				c-7.444,15.582-17.444,28.347-29.89,38.339c-12.792,10.131-27.438,17.664-43.117,22.164c-16.494,4.849-33.608,7.287-50.794,7.224
				H797.903z"/>
			<path id="Fill-6" fill="#5079C9" d="M1068.388,256.955h81.14V13.524h-81.14V256.955z"/>
			<path id="Fill-7" fill="#5079C9" d="M1289.364,256.955c-9.562,0-18.939-0.817-28.171-2.431
				c-9.188-1.611-18.094-3.986-26.637-7.119c-8.319-3.023-16.403-6.702-24.144-10.998c-7.238-4.003-14.041-8.717-20.311-14.102
				l48.31-51.25c5.52,5.856,12.915,11.045,22.133,15.608c8.834,4.47,18.595,6.794,28.476,6.813c4.441,0,8.501-0.747,12.175-2.265
				c3.648-1.535,5.487-4.359,5.487-8.458c0.039-2.003-0.6-3.968-1.839-5.543c-1.217-1.53-3.382-3.116-6.501-4.744
				c-4.144-2.066-8.424-3.864-12.81-5.396c-6.79-2.394-13.617-4.667-20.483-6.817c-7.884-2.562-15.561-5.665-22.999-9.309
				c-7.098-3.445-13.646-7.888-19.494-13.219c-5.698-5.268-10.28-11.645-13.494-18.729c-3.322-7.281-4.985-16.042-4.985-26.25
				c0-14.339,3.018-26.509,9.017-36.512c5.811-9.8,13.712-18.211,23.144-24.616c9.666-6.505,20.438-11.207,31.78-13.86
				c11.771-2.84,23.459-4.237,35.006-4.237c15.554,0,31.349,2.921,47.464,8.795c15.659,5.608,30.097,14.226,42.469,25.37
				l-49.311,49.147c-5.256-6.453-11.992-11.529-19.623-14.815c-7.811-3.351-14.775-5.041-20.999-5.041
				c-5.786,0-10.438,0.811-14.003,2.437c-3.54,1.623-5.323,4.302-5.323,7.981c0,3.469,1.836,6.086,5.491,7.813
				c3.663,1.757,9.604,3.9,17.82,6.491c8.452,2.624,17.308,5.665,26.655,9.128c9.318,3.478,17.929,7.97,25.802,13.526
				c7.775,5.412,14.396,12.314,19.477,20.328c5.115,8.031,7.677,17.975,7.677,29.927c0,13.882-2.849,25.99-8.505,36.295
				c-5.467,10.087-13.091,18.871-22.304,25.718c-9.383,6.912-19.933,12.089-31.136,15.272c-11.463,3.356-23.347,5.06-35.3,5.06"/>
			<path id="Combined-Shape" fill="#5079C9" d="M101.996,13.524c11.604,0,23.138,1.19,34.627,3.612
				c11.467,2.408,21.739,6.626,30.752,12.716c9.182,6.236,16.704,14.624,21.904,24.422c5.579,10.2,8.378,22.984,8.378,38.342
				c0,14.904-3.56,28.004-10.687,39.346c-7.118,11.364-17.339,20.131-30.662,26.323l60.075,98.669h-91.434l-45.363-87.006h-2.342
				v87.006H0V13.524H101.996z M95.506,77.127H76.603v39.194h15.59c2.653,0,5.577-0.214,8.791-0.676
				c3.222-0.459,6.192-1.435,8.95-2.932c2.774-1.486,5.085-3.537,6.97-6.183c1.893-2.64,2.839-6.145,2.839-10.477
				c0-4.352-0.786-7.798-2.339-10.337c-1.426-2.401-3.483-4.361-5.951-5.667c-2.497-1.273-5.193-2.088-7.982-2.391
				C100.829,77.323,98.167,77.144,95.506,77.127z"/>
		</g>
	</g>
</g>
</svg>
