<?xml version="1.0" encoding="utf-8"?>
<!-- Generator: Adobe Illustrator 25.1.0, SVG Export Plug-In . SVG Version: 6.00 Build 0)  -->
<svg version="1.1" id="Capa_1" xmlns="http://www.w3.org/2000/svg" xmlns:xlink="http://www.w3.org/1999/xlink" x="0px" y="0px"
	 viewBox="0 0 493.9 206.5" style="enable-background:new 0 0 493.9 206.5;" xml:space="preserve">
<style type="text/css">
	.st0{fill:#F7A823;}
</style>
<g>
	<path class="st0" d="M27,0.7v118h73.5v24.9H0V0.7H27z"/>
	<path class="st0" d="M217.6,93.4c0,29-19.8,52.5-52.5,52.5c-32.7,0-52.3-23.5-52.3-52.5c0-28.8,20-52.5,52.1-52.5
		C197,40.9,217.6,64.6,217.6,93.4z M137.8,93.4c0,15.3,9.2,29.6,27.4,29.6c18.2,0,27.4-14.3,27.4-29.6c0-15.1-10.6-29.8-27.4-29.8
		C147.2,63.5,137.8,78.2,137.8,93.4z"/>
	<path class="st0" d="M313.8,32.7l18.4,13.9l-11.2,14.3c7.8,8.8,10.6,18.8,10.6,29.8c0,12.5-4.7,30-21.2,37.6
		c16.7,8.4,20.8,20.4,20.8,33.3c0,27.8-21.2,44.9-50.4,44.9c-29.2,0-51-17.8-51-44.9h24.7c0,13.1,12,21.6,26.3,21.6
		s25.5-7.8,25.5-21.6c0-13.9-13.1-20.2-25.5-20.2c-31.4,0-51-19.2-51-50.6c0-31.4,22.9-51,51-51c8,0,16.1,1,23.1,5.7L313.8,32.7z
		 M254.4,90.7c0,17.6,11.8,28,26.3,28c14.3,0,26.1-10.6,26.1-28c0-17.4-11.8-28.4-26.1-28.4C266.2,62.3,254.4,73.1,254.4,90.7z"/>
	<path class="st0" d="M374.6,14.6c0,19.4-29.4,19.4-29.4,0C345.2-4.8,374.6-4.8,374.6,14.6z M347.5,42.5v101.1h24.9V42.5H347.5z"/>
	<path class="st0" d="M469,143.6V90.9c0-15.3-8.4-27-24.3-27c-15.3,0-25.7,12.9-25.7,28.2v51.5h-24.7V42.7h22.3l1.6,13.7
		c10.2-10,20.4-15.1,33.1-15.1c23.7,0,42.7,17.8,42.7,49.4v52.9L469,143.6L469,143.6L469,143.6z"/>
</g>
</svg>
