<?xml version="1.0" encoding="utf-8"?>
<!-- Generator: Adobe Illustrator 16.0.0, SVG Export Plug-In . SVG Version: 6.00 Build 0)  -->
<!DOCTYPE svg PUBLIC "-//W3C//DTD SVG 1.1//EN" "http://www.w3.org/Graphics/SVG/1.1/DTD/svg11.dtd">
<svg version="1.1" id="Capa_1" xmlns="http://www.w3.org/2000/svg" xmlns:xlink="http://www.w3.org/1999/xlink" x="0px" y="0px"
	 width="493.875px" height="206.465px" viewBox="0 0 493.875 206.465" enable-background="new 0 0 493.875 206.465"
	 xml:space="preserve">
<g>
	<path fill="#58167D" d="M26.952,0.661v118.013h73.5v24.91H0V0.661H26.952z"/>
	<path fill="#58167D" d="M217.642,93.357c0,28.987-19.804,52.472-52.473,52.472c-32.667,0-52.267-23.484-52.267-52.472
		c0-28.79,20.008-52.477,52.063-52.477C197.022,40.881,217.642,64.567,217.642,93.357z M137.812,93.357
		c0,15.31,9.187,29.604,27.357,29.604c18.172,0,27.359-14.295,27.359-29.604c0-15.111-10.617-29.81-27.359-29.81
		C147.203,63.548,137.812,78.246,137.812,93.357z"/>
	<path fill="#58167D" d="M313.802,32.714l18.378,13.888l-11.232,14.296c7.76,8.773,10.617,18.781,10.617,29.803
		c0,12.455-4.695,30.014-21.231,37.569c16.74,8.372,20.827,20.419,20.827,33.281c0,27.765-21.237,44.914-50.432,44.914
		c-29.198,0-51.044-17.762-51.044-44.914h24.707c0,13.066,12.045,21.642,26.338,21.642s25.521-7.76,25.521-21.642
		c0-13.889-13.069-20.215-25.521-20.215c-31.443,0-51.044-19.188-51.044-50.636c0-31.439,22.865-51.043,51.044-51.043
		c7.959,0,16.127,1.025,23.07,5.721L313.802,32.714z M254.391,90.7c0,17.558,11.84,27.974,26.338,27.974
		c14.293,0,26.133-10.613,26.133-27.974c0-17.354-11.84-28.381-26.133-28.381C266.229,62.319,254.391,73.143,254.391,90.7z"/>
	<path fill="#58167D" d="M374.641,14.55c0,19.393-29.4,19.393-29.4,0C345.239-4.85,374.641-4.85,374.641,14.55z M347.484,42.519
		v101.065h24.906V42.519H347.484z"/>
	<path fill="#58167D" d="M468.965,143.584V90.91c0-15.32-8.368-26.954-24.296-26.954c-15.313,0-25.725,12.862-25.725,28.178v51.451
		h-24.708V42.722h22.258l1.632,13.679c10.211-10.003,20.418-15.106,33.076-15.106c23.685,0,42.673,17.763,42.673,49.406v52.885
		h-24.91V143.584z"/>
</g>
</svg>
