<?xml version="1.0" encoding="utf-8"?>
<!-- Generator: Adobe Illustrator 16.0.0, SVG Export Plug-In . SVG Version: 6.00 Build 0)  -->
<!DOCTYPE svg PUBLIC "-//W3C//DTD SVG 1.1//EN" "http://www.w3.org/Graphics/SVG/1.1/DTD/svg11.dtd">
<svg version="1.1" id="Capa_1" xmlns="http://www.w3.org/2000/svg" xmlns:xlink="http://www.w3.org/1999/xlink" x="0px" y="0px"
	 width="882.264px" height="40.161px" viewBox="0 0 882.264 40.161" enable-background="new 0 0 882.264 40.161"
	 xml:space="preserve">
<g>
	<path fill="#58167D" d="M25.542,32.129h-7.229V21.366H7.229v10.764H0V4.418h7.229v11.325h11.084V4.418h7.229V32.129z"/>
	<path fill="#58167D" d="M52.171,32.129H30.926V4.418H51.77v5.622H38.155v5.382h12.812v5.624H38.155v5.461h14.016V32.129z"/>
	<path fill="#58167D" d="M63.538,24.94l-2.329,7.188h-7.671l10-27.71h8.835l10,27.71h-7.871l-2.33-7.188H63.538z M65.305,19.317
		h5.141l-2.57-8.514L65.305,19.317z"/>
	<path fill="#58167D" d="M106.23,32.129H84.985V4.418h7.229v21.606h14.016V32.129z"/>
	<path fill="#58167D" d="M118.4,10.04v22.089h-7.229V10.04h-8.996V4.418h25.221v5.622H118.4z"/>
	<path fill="#58167D" d="M155.752,32.129h-7.229V21.366h-11.084v10.764h-7.229V4.418h7.229v11.325h11.084V4.418h7.229V32.129z"/>
	<path fill="#9A999E" d="M170.453,40.161V0h2.33v40.161H170.453z"/>
	<path fill="#58167D" d="M209.209,12.972h-7.229c-0.321-2.289-1.526-3.815-3.896-3.815c-1.646,0-2.771,0.804-2.771,2.49
		c0,1.768,1.285,2.852,5.864,3.936c6.104,1.446,8.594,4.498,8.594,8.755c0,5.543-5.301,8.354-10.883,8.354
		c-7.028,0-11.768-2.812-12.209-9.036h7.229c0.482,2.61,2.611,3.734,4.779,3.734c2.008,0,3.534-1.044,3.534-2.57
		c0-1.445-1.044-2.689-4.458-3.533c-6.305-1.566-10-3.535-10-9.077c0-5.342,4.98-8.354,10.482-8.354
		C205.554,3.855,208.606,7.831,209.209,12.972z"/>
	<path fill="#58167D" d="M220.134,24.94l-2.329,7.188h-7.671l10-27.71h8.835l10,27.71h-7.871l-2.33-7.188H220.134z M221.901,19.317
		h5.141l-2.57-8.514L221.901,19.317z"/>
	<path fill="#58167D" d="M248.811,15.422h12.41v5.624h-12.41v11.084h-7.229V4.418h20.844v5.622h-13.615V15.422L248.811,15.422z"/>
	<path fill="#58167D" d="M287.527,32.129h-21.245V4.418h20.844v5.622h-13.615v5.382h12.813v5.624h-12.813v5.461h14.016V32.129z"/>
	<path fill="#58167D" d="M305.521,10.04v22.089h-7.229V10.04h-8.996V4.418h25.221v5.622H305.521z"/>
	<path fill="#58167D" d="M331.667,32.129h-7.229V21.526l-9.759-17.108h8.113l5.462,10.964l5.261-10.964h7.912l-9.759,17.108
		L331.667,32.129L331.667,32.129z"/>
	<path fill="#9A999E" d="M351.669,40.161V0h2.329v40.161H351.669z"/>
	<path fill="#58167D" d="M390.987,32.129h-21.245V4.418h20.844v5.622h-13.615v5.382h12.812v5.624h-12.812v5.461h14.016V32.129z"/>
	<path fill="#58167D" d="M412.475,32.129l-10.08-18.313c0.24,2.812,0.24,5.261,0.24,6.867v11.446h-7.229V4.418h8.996l10.521,19.116
		c-0.201-2.812-0.241-5.662-0.241-7.269V4.418h7.229v27.711H412.475z"/>
	<path fill="#58167D" d="M435.368,32.129l-10-27.711h7.872l6.626,22.129l6.667-22.129h7.671l-10,27.711H435.368z"/>
	<path fill="#58167D" d="M457.098,32.129V4.418h7.229v27.711H457.098z"/>
	<path fill="#58167D" d="M493.405,32.129h-7.873c-0.644-1.969-1.043-3.574-1.285-5.543c-0.361-3.053-1.566-4.818-3.412-4.939
		c-0.805-0.04-1.486-0.04-2.289-0.04h-1.606v10.522h-7.229V4.418h11.004c1.728,0,2.853,0.04,4.338,0.2
		c4.017,0.482,7.511,2.45,7.511,7.35c0,3.494-1.89,5.823-5.582,6.908c2.891,1.044,3.936,3.173,4.336,6.505
		C491.676,28.515,492.319,30.482,493.405,32.129z M479.549,16.386c0.762,0,1.404,0,1.928-0.04c1.847-0.161,3.533-0.804,3.533-3.133
		s-1.485-2.972-3.334-3.133c-0.521-0.04-1.164-0.04-1.928-0.04h-2.811v6.346H479.549z"/>
	<path fill="#58167D" d="M524.409,18.273c0,8.875-5.541,14.418-14.176,14.418c-8.636,0-14.179-5.543-14.179-14.418
		c0-8.916,5.543-14.418,14.179-14.418C518.868,3.855,524.409,9.357,524.409,18.273z M517.02,18.273c0-5.904-2.61-9.117-6.786-9.117
		c-4.179,0-6.787,3.213-6.787,9.117c0,5.862,2.608,9.116,6.787,9.116C514.409,27.39,517.02,24.137,517.02,18.273z"/>
	<path fill="#58167D" d="M545.817,32.129l-10.08-18.313c0.241,2.812,0.241,5.261,0.241,6.867v11.446h-7.229V4.418h8.996
		l10.522,19.116c-0.2-2.812-0.241-5.662-0.241-7.269V4.418h7.229v27.711H545.817z"/>
	<path fill="#58167D" d="M592.327,32.129h-7.23V20.482c0-2.41,0-5.984,0.08-8.796c-0.479,2.812-1.284,6.346-1.928,8.796
		l-3.051,11.646h-7.431l-3.094-11.646c-0.643-2.41-1.445-5.984-1.887-8.796c0.08,2.812,0.08,6.386,0.08,8.796v11.646h-7.229V4.418
		h11.285l4.699,20.683l4.697-20.683h11.006v27.711H592.327z"/>
	<path fill="#58167D" d="M618.954,32.129H597.71V4.418h20.844v5.622h-13.614v5.382h12.811v5.624h-12.811v5.461h14.016
		L618.954,32.129L618.954,32.129z"/>
	<path fill="#58167D" d="M640.442,32.129l-10.08-18.313c0.241,2.812,0.241,5.261,0.241,6.867v11.446h-7.229V4.418h8.996
		l10.522,19.116c-0.2-2.812-0.241-5.662-0.241-7.269V4.418h7.229v27.711H640.442z"/>
	<path fill="#58167D" d="M668.838,10.04v22.089h-7.229V10.04h-8.996V4.418h25.221v5.622H668.838z"/>
	<path fill="#9A999E" d="M688.357,40.161V0h2.328v40.161H688.357z"/>
	<path fill="#58167D" d="M734.502,29.479l-3.453,4.578c-2.57-1.566-3.813-2.008-5.703-2.008c-1.125,0-1.807,0.119-2.932,0.361
		c-0.883,0.2-1.807,0.28-2.852,0.28c-8.636,0-14.177-5.543-14.177-14.418c0-8.916,5.541-14.458,14.177-14.458
		c8.635,0,14.178,5.542,14.178,14.458c0,3.373-1.166,6.546-3.535,8.755C731.692,27.471,733.018,28.233,734.502,29.479z
		 M719.563,27.39c4.179,0,6.787-3.253,6.787-9.116c0-5.904-2.608-9.157-6.787-9.157c-4.176,0-6.786,3.253-6.786,9.157
		C712.776,24.137,715.387,27.39,719.563,27.39z"/>
	<path fill="#58167D" d="M762.297,19.96c0,1.406,0,2.25-0.121,3.896c-0.32,4.659-3.615,8.836-12.168,8.836
		c-8.555,0-11.848-4.177-12.17-8.836c-0.119-1.646-0.119-2.49-0.119-3.896V4.418h7.229v16.868c0,0.764,0,1.164,0.039,1.646
		c0.2,2.892,1.848,4.458,5.021,4.458c3.172,0,4.818-1.566,5.021-4.458c0.041-0.481,0.041-0.884,0.041-1.646V4.418h7.229
		L762.297,19.96L762.297,19.96z"/>
	<path fill="#58167D" d="M773.504,24.94l-2.33,7.188h-7.67l10-27.71h8.834l10,27.71h-7.871l-2.328-7.188H773.504z M775.27,19.317
		h5.142l-2.57-8.514L775.27,19.317z"/>
	<path fill="#58167D" d="M816.196,32.129H794.95V4.418h7.229v21.606h14.017V32.129z"/>
	<path fill="#58167D" d="M820.172,32.129V4.418h7.23v27.711H820.172z"/>
	<path fill="#58167D" d="M846.357,10.04v22.089h-7.229V10.04h-8.996V4.418h25.221v5.622H846.357z"/>
	<path fill="#58167D" d="M872.504,32.129h-7.229V21.526l-9.761-17.108h8.113l5.461,10.964l5.263-10.964h7.911l-9.76,17.108
		L872.504,32.129L872.504,32.129z"/>
</g>
</svg>
