<?xml version="1.0" encoding="utf-8"?>
<!-- Generator: Adobe Illustrator 25.1.0, SVG Export Plug-In . SVG Version: 6.00 Build 0)  -->
<svg version="1.1" id="Capa_1" xmlns="http://www.w3.org/2000/svg" xmlns:xlink="http://www.w3.org/1999/xlink" x="0px" y="0px"
	 viewBox="0 0 882.3 40.2" style="enable-background:new 0 0 882.3 40.2;" xml:space="preserve">
<style type="text/css">
	.st0{fill:#9A999E;}
	.st1{fill:#407EC9;}
</style>
<path class="st0" d="M326.1,40.2V0h2.3v40.2H326.1z"/>
<path class="st0" d="M575.5,40.2V0h2.3v40.2H575.5z"/>
<path class="st0" d="M727.6,40.2V0h2.3v40.2H727.6z"/>
<g>
	<path class="st1" d="M16.1,36.5c-2,0-3.9-0.3-5.8-1c-1.8-0.7-3.6-1.6-5.3-2.9L8.3,28c1.8,1.2,3.3,2.1,4.5,2.6
		c1.2,0.5,2.5,0.8,3.8,0.8c0.9,0,1.7-0.1,2.3-0.3c0.6-0.2,1.1-0.5,1.5-0.9c0.4-0.4,0.5-0.9,0.5-1.4c0-0.8-0.2-1.3-0.7-1.7
		c-0.5-0.4-1.4-0.7-2.6-0.9l-5.4-0.9c-2-0.3-3.6-1.1-4.6-2.3c-1.1-1.2-1.6-2.7-1.6-4.5c0-1.7,0.4-3.1,1.2-4.3c0.8-1.2,2-2.1,3.5-2.8
		c1.5-0.7,3.3-1,5.4-1c2,0,3.9,0.3,5.7,0.9c1.8,0.6,3.4,1.4,4.7,2.5l-3.2,4.6c-1.2-0.9-2.5-1.7-3.7-2.1c-1.2-0.5-2.5-0.7-3.9-0.7
		c-0.8,0-1.5,0.1-2.1,0.3c-0.6,0.2-1,0.5-1.3,0.9c-0.3,0.4-0.5,0.8-0.5,1.2c0,0.7,0.2,1.2,0.7,1.5c0.4,0.4,1.2,0.6,2.2,0.8l5.1,0.9
		c2.4,0.4,4.2,1.2,5.4,2.4c1.2,1.2,1.9,2.8,1.9,4.8c0,1.7-0.4,3.1-1.3,4.4c-0.9,1.3-2.1,2.2-3.8,3C20.3,36.1,18.4,36.5,16.1,36.5z"
		/>
	<path class="st1" d="M43.1,36.5c-1.8,0-3.6-0.3-5.2-1c-1.6-0.7-3-1.6-4.2-2.8c-1.2-1.2-2.1-2.6-2.8-4.2c-0.7-1.6-1-3.3-1-5.2
		c0-1.8,0.3-3.6,1-5.2c0.7-1.6,1.6-3,2.8-4.2c1.2-1.2,2.6-2.1,4.2-2.8c1.6-0.7,3.3-1,5.2-1c1.8,0,3.6,0.3,5.2,1
		c1.6,0.7,3,1.6,4.2,2.8c1.2,1.2,2.1,2.6,2.8,4.2c0.7,1.6,1,3.3,1,5.2c0,1.8-0.3,3.6-1,5.2c-0.7,1.6-1.6,3-2.8,4.2
		c-1.2,1.2-2.6,2.1-4.2,2.8C46.6,36.2,44.9,36.5,43.1,36.5z M43.1,30.9c0.9,0,1.8-0.2,2.7-0.6c0.8-0.4,1.5-0.9,2.1-1.6
		c0.6-0.7,1.1-1.5,1.4-2.4c0.3-0.9,0.5-1.9,0.5-3s-0.2-2.1-0.5-3c-0.3-0.9-0.8-1.7-1.4-2.4s-1.3-1.2-2.1-1.6
		c-0.8-0.4-1.7-0.6-2.7-0.6s-1.8,0.2-2.7,0.6c-0.8,0.4-1.5,0.9-2.1,1.6c-0.6,0.7-1.1,1.5-1.4,2.4c-0.3,0.9-0.5,1.9-0.5,3
		s0.2,2.1,0.5,3c0.3,0.9,0.8,1.7,1.4,2.4c0.6,0.7,1.3,1.2,2.1,1.6C41.2,30.7,42.1,30.9,43.1,30.9z"/>
	<path class="st1" d="M69.6,36.5c-2,0-3.9-0.3-5.8-1c-1.8-0.7-3.6-1.6-5.3-2.9l3.2-4.6c1.8,1.2,3.3,2.1,4.5,2.6
		c1.2,0.5,2.5,0.8,3.8,0.8c0.9,0,1.7-0.1,2.3-0.3c0.6-0.2,1.1-0.5,1.5-0.9c0.4-0.4,0.5-0.9,0.5-1.4c0-0.8-0.2-1.3-0.7-1.7
		c-0.5-0.4-1.4-0.7-2.6-0.9l-5.4-0.9c-2-0.3-3.6-1.1-4.6-2.3c-1.1-1.2-1.6-2.7-1.6-4.5c0-1.7,0.4-3.1,1.2-4.3c0.8-1.2,2-2.1,3.5-2.8
		c1.5-0.7,3.3-1,5.4-1c2,0,3.9,0.3,5.7,0.9c1.8,0.6,3.4,1.4,4.7,2.5l-3.2,4.6c-1.2-0.9-2.5-1.7-3.7-2.1c-1.2-0.5-2.5-0.7-3.9-0.7
		c-0.8,0-1.5,0.1-2.1,0.3c-0.6,0.2-1,0.5-1.3,0.9c-0.3,0.4-0.5,0.8-0.5,1.2c0,0.7,0.2,1.2,0.7,1.5c0.4,0.4,1.2,0.6,2.2,0.8l5.1,0.9
		c2.4,0.4,4.2,1.2,5.4,2.4c1.2,1.2,1.9,2.8,1.9,4.8c0,1.7-0.4,3.1-1.3,4.4c-0.9,1.3-2.1,2.2-3.8,3C73.8,36.1,71.9,36.5,69.6,36.5z"
		/>
	<path class="st1" d="M90.2,36.1V15.9H82v-5.4h22.7v5.4h-8.2v20.1H90.2z"/>
	<path class="st1" d="M108.2,36.1V10.6h19.3v5.2h-13v4.8h9.2v5.1h-9.2v5.1h13.1v5.2H108.2z"/>
	<path class="st1" d="M132.6,36.1V10.6h5.9L149.8,26l-0.1-15.4h5.9v25.5H150l-11.7-16l0.1,16H132.6z"/>
	<path class="st1" d="M160.9,36.1V10.6h6.3v25.5H160.9z"/>
	<path class="st1" d="M172.5,36.1V10.6h12.6c1.7,0,3.1,0.3,4.4,0.9c1.3,0.6,2.3,1.4,3,2.5c0.7,1,1.1,2.2,1.1,3.6
		c0,1.2-0.3,2.3-1,3.2c-0.7,1-1.6,1.7-2.7,2.3c1.3,0.5,2.4,1.3,3.2,2.3c0.8,1,1.2,2.2,1.2,3.5c0,1.4-0.4,2.6-1.1,3.7
		c-0.7,1.1-1.8,1.9-3,2.5c-1.3,0.6-2.8,0.9-4.5,0.9H172.5z M178.7,20.8h5.6c0.9,0,1.6-0.2,2.1-0.7c0.5-0.5,0.8-1.1,0.8-1.9
		c0-0.8-0.3-1.4-0.8-1.9c-0.5-0.5-1.2-0.7-2.1-0.7h-5.6V20.8z M178.7,31.1h6.1c0.9,0,1.7-0.3,2.3-0.8s0.8-1.2,0.8-2s-0.3-1.5-0.8-2
		s-1.3-0.8-2.3-0.8h-6.1V31.1z"/>
	<path class="st1" d="M198.7,36.1V10.6h6.3v25.5H198.7z"/>
	<path class="st1" d="M210.3,36.1V10.6h6.3v20.1h12.6v5.4H210.3z"/>
	<path class="st1" d="M233.5,36.1V10.6h6.3v25.5H233.5z"/>
	<path class="st1" d="M245.1,36.1V10.6h10.4c1.8,0,3.5,0.3,5,1c1.5,0.7,2.9,1.6,4.1,2.7c1.2,1.2,2.1,2.5,2.7,4.1c0.7,1.5,1,3.2,1,5
		s-0.3,3.4-1,5c-0.7,1.5-1.6,2.9-2.7,4.1c-1.2,1.2-2.5,2.1-4.1,2.7s-3.2,1-5,1H245.1z M251.3,30.7h4.1c1.2,0,2.3-0.3,3.2-1
		c0.9-0.7,1.7-1.5,2.3-2.7c0.6-1.1,0.9-2.4,0.9-3.7c0-1.4-0.3-2.6-0.9-3.8c-0.6-1.1-1.3-2-2.3-2.7c-0.9-0.7-2-1-3.2-1h-4.1V30.7z"/>
	<path class="st1" d="M268.7,36.1l9.9-25.5h7.1l9.8,25.5h-6.8l-2.1-6.1h-9.3l-2.1,6.1H268.7z M279.1,25.2h5.9l-3-8.4L279.1,25.2z"/>
	<path class="st1" d="M298.5,36.1V10.6h10.4c1.8,0,3.5,0.3,5,1c1.5,0.7,2.9,1.6,4.1,2.7c1.2,1.2,2.1,2.5,2.7,4.1c0.7,1.5,1,3.2,1,5
		s-0.3,3.4-1,5c-0.7,1.5-1.6,2.9-2.7,4.1c-1.2,1.2-2.5,2.1-4.1,2.7s-3.2,1-5,1H298.5z M304.8,30.7h4.1c1.2,0,2.3-0.3,3.2-1
		c0.9-0.7,1.7-1.5,2.3-2.7c0.6-1.1,0.9-2.4,0.9-3.7c0-1.4-0.3-2.6-0.9-3.8c-0.6-1.1-1.3-2-2.3-2.7c-0.9-0.7-2-1-3.2-1h-4.1V30.7z"/>
	<path class="st1" d="M333.7,36.1V10.6h6.3v25.5H333.7z"/>
	<path class="st1" d="M345.2,36.1V10.6h5.9L362.5,26l-0.1-15.4h5.9v25.5h-5.5l-11.7-16l0.1,16H345.2z"/>
	<path class="st1" d="M373.9,36.1V10.6h5.9L391.2,26l-0.1-15.4h5.9v25.5h-5.5l-11.7-16l0.1,16H373.9z"/>
	<path class="st1" d="M414.6,36.5c-1.8,0-3.6-0.3-5.2-1c-1.6-0.7-3-1.6-4.2-2.8c-1.2-1.2-2.1-2.6-2.8-4.2c-0.7-1.6-1-3.3-1-5.2
		c0-1.8,0.3-3.6,1-5.2c0.7-1.6,1.6-3,2.8-4.2c1.2-1.2,2.6-2.1,4.2-2.8c1.6-0.7,3.3-1,5.2-1c1.8,0,3.6,0.3,5.2,1
		c1.6,0.7,3,1.6,4.2,2.8c1.2,1.2,2.1,2.6,2.8,4.2c0.7,1.6,1,3.3,1,5.2c0,1.8-0.3,3.6-1,5.2c-0.7,1.6-1.6,3-2.8,4.2
		c-1.2,1.2-2.6,2.1-4.2,2.8C418.2,36.2,416.5,36.5,414.6,36.5z M414.6,30.9c0.9,0,1.8-0.2,2.7-0.6c0.8-0.4,1.5-0.9,2.1-1.6
		c0.6-0.7,1.1-1.5,1.4-2.4c0.3-0.9,0.5-1.9,0.5-3s-0.2-2.1-0.5-3c-0.3-0.9-0.8-1.7-1.4-2.4s-1.3-1.2-2.1-1.6
		c-0.8-0.4-1.7-0.6-2.7-0.6s-1.8,0.2-2.7,0.6c-0.8,0.4-1.5,0.9-2.1,1.6c-0.6,0.7-1.1,1.5-1.4,2.4c-0.3,0.9-0.5,1.9-0.5,3
		s0.2,2.1,0.5,3c0.3,0.9,0.8,1.7,1.4,2.4c0.6,0.7,1.3,1.2,2.1,1.6C412.8,30.7,413.7,30.9,414.6,30.9z"/>
	<path class="st1" d="M438,36.1l-9.8-25.5h6.8l6.7,19l6.8-19h6.5l-9.9,25.5H438z"/>
	<path class="st1" d="M451.3,36.1l9.9-25.5h7.1l9.8,25.5h-6.8l-2.1-6.1h-9.3l-2.1,6.1H451.3z M461.6,25.2h5.9l-3-8.4L461.6,25.2z"/>
	<path class="st1" d="M492,36.5c-1.9,0-3.7-0.3-5.3-1c-1.6-0.7-3.1-1.6-4.3-2.8c-1.2-1.2-2.2-2.6-2.9-4.2c-0.7-1.6-1-3.3-1-5.2
		c0-1.9,0.3-3.6,1-5.2c0.7-1.6,1.6-3,2.9-4.2c1.2-1.2,2.7-2.1,4.3-2.8c1.6-0.7,3.4-1,5.3-1c1.4,0,2.7,0.2,4,0.6
		c1.3,0.4,2.5,1,3.6,1.7c1.1,0.7,2,1.6,2.8,2.6l-4.2,4c-0.8-1.1-1.7-2-2.8-2.5c-1-0.6-2.1-0.8-3.4-0.8c-1,0-1.9,0.2-2.8,0.6
		s-1.6,0.9-2.2,1.6s-1.1,1.5-1.5,2.4c-0.4,0.9-0.5,1.9-0.5,3s0.2,2.1,0.5,3c0.4,0.9,0.8,1.7,1.5,2.4c0.6,0.7,1.4,1.2,2.2,1.6
		c0.8,0.4,1.8,0.6,2.8,0.6c1.2,0,2.3-0.3,3.4-0.9s1.9-1.4,2.8-2.5l4.2,4c-0.7,1-1.6,1.9-2.8,2.6c-1.1,0.8-2.3,1.3-3.6,1.7
		S493.4,36.5,492,36.5z"/>
	<path class="st1" d="M505.6,36.1V10.6h6.3v25.5H505.6z"/>
	<path class="st1" d="M529.2,36.5c-1.8,0-3.6-0.3-5.2-1c-1.6-0.7-3-1.6-4.2-2.8c-1.2-1.2-2.1-2.6-2.8-4.2c-0.7-1.6-1-3.3-1-5.2
		c0-1.8,0.3-3.6,1-5.2c0.7-1.6,1.6-3,2.8-4.2c1.2-1.2,2.6-2.1,4.2-2.8c1.6-0.7,3.3-1,5.2-1c1.8,0,3.6,0.3,5.2,1
		c1.6,0.7,3,1.6,4.2,2.8c1.2,1.2,2.1,2.6,2.8,4.2c0.7,1.6,1,3.3,1,5.2c0,1.8-0.3,3.6-1,5.2c-0.7,1.6-1.6,3-2.8,4.2
		c-1.2,1.2-2.6,2.1-4.2,2.8C532.8,36.2,531,36.5,529.2,36.5z M529.2,30.9c0.9,0,1.8-0.2,2.7-0.6c0.8-0.4,1.5-0.9,2.1-1.6
		c0.6-0.7,1.1-1.5,1.4-2.4c0.3-0.9,0.5-1.9,0.5-3s-0.2-2.1-0.5-3s-0.8-1.7-1.4-2.4c-0.6-0.7-1.3-1.2-2.1-1.6s-1.7-0.6-2.7-0.6
		c-0.9,0-1.8,0.2-2.7,0.6c-0.8,0.4-1.5,0.9-2.1,1.6c-0.6,0.7-1.1,1.5-1.4,2.4c-0.3,0.9-0.5,1.9-0.5,3s0.2,2.1,0.5,3
		c0.3,0.9,0.8,1.7,1.4,2.4c0.6,0.7,1.3,1.2,2.1,1.6C527.4,30.7,528.3,30.9,529.2,30.9z M525.8,7.5l5-5.3h7l-7,5.3H525.8z"/>
	<path class="st1" d="M546.9,36.1V10.6h5.9L564.1,26L564,10.6h5.9v25.5h-5.5l-11.7-16l0.1,16H546.9z"/>
	<path class="st1" d="M583.4,36.1V10.6h12.4c1.7,0,3.3,0.3,4.7,1c1.4,0.7,2.4,1.7,3.2,2.9c0.8,1.2,1.1,2.6,1.1,4.2
		c0,1.6-0.4,3.1-1.3,4.3c-0.9,1.3-2,2.2-3.4,2.8l5.4,10.2h-7l-4.6-9.4h-4.1v9.4H583.4z M589.7,21.8h5.5c1,0,1.8-0.3,2.3-0.8
		c0.6-0.6,0.9-1.3,0.9-2.2c0-0.9-0.3-1.7-0.9-2.2c-0.6-0.5-1.4-0.8-2.3-0.8h-5.5V21.8z"/>
	<path class="st1" d="M621,36.5c-1.8,0-3.6-0.3-5.2-1c-1.6-0.7-3-1.6-4.2-2.8c-1.2-1.2-2.1-2.6-2.8-4.2c-0.7-1.6-1-3.3-1-5.2
		c0-1.8,0.3-3.6,1-5.2c0.7-1.6,1.6-3,2.8-4.2c1.2-1.2,2.6-2.1,4.2-2.8c1.6-0.7,3.3-1,5.2-1c1.8,0,3.6,0.3,5.2,1
		c1.6,0.7,3,1.6,4.2,2.8c1.2,1.2,2.1,2.6,2.8,4.2c0.7,1.6,1,3.3,1,5.2c0,1.8-0.3,3.6-1,5.2c-0.7,1.6-1.6,3-2.8,4.2
		c-1.2,1.2-2.6,2.1-4.2,2.8C624.6,36.2,622.8,36.5,621,36.5z M621,30.9c0.9,0,1.8-0.2,2.7-0.6c0.8-0.4,1.5-0.9,2.1-1.6
		c0.6-0.7,1.1-1.5,1.4-2.4c0.3-0.9,0.5-1.9,0.5-3s-0.2-2.1-0.5-3s-0.8-1.7-1.4-2.4c-0.6-0.7-1.3-1.2-2.1-1.6s-1.7-0.6-2.7-0.6
		c-0.9,0-1.8,0.2-2.7,0.6c-0.8,0.4-1.5,0.9-2.1,1.6c-0.6,0.7-1.1,1.5-1.4,2.4c-0.3,0.9-0.5,1.9-0.5,3s0.2,2.1,0.5,3
		c0.3,0.9,0.8,1.7,1.4,2.4c0.6,0.7,1.3,1.2,2.1,1.6C619.1,30.7,620,30.9,621,30.9z"/>
	<path class="st1" d="M634.6,36.1l9.9-25.5h7.1l9.8,25.5h-6.8l-2.1-6.1h-9.3l-2.1,6.1H634.6z M645,25.2h5.9l-3-8.4L645,25.2z"/>
	<path class="st1" d="M664.4,36.1V10.6h10.4c1.8,0,3.5,0.3,5,1c1.5,0.7,2.9,1.6,4.1,2.7s2.1,2.5,2.8,4.1c0.7,1.5,1,3.2,1,5
		s-0.3,3.4-1,5c-0.7,1.5-1.6,2.9-2.8,4.1c-1.2,1.2-2.5,2.1-4.1,2.7c-1.5,0.7-3.2,1-5,1H664.4z M670.7,30.7h4.1c1.2,0,2.3-0.3,3.2-1
		c0.9-0.7,1.7-1.5,2.3-2.7c0.6-1.1,0.9-2.4,0.9-3.7c0-1.4-0.3-2.6-0.9-3.8c-0.6-1.1-1.3-2-2.3-2.7c-0.9-0.7-2-1-3.2-1h-4.1V30.7z"/>
	<path class="st1" d="M691.7,36.1V10.6h6.3v25.5H691.7z"/>
	<path class="st1" d="M712.2,36.5c-2,0-3.9-0.3-5.8-1c-1.8-0.7-3.6-1.6-5.3-2.9l3.2-4.6c1.8,1.2,3.3,2.1,4.5,2.6
		c1.2,0.5,2.5,0.8,3.8,0.8c0.9,0,1.7-0.1,2.3-0.3c0.6-0.2,1.1-0.5,1.5-0.9s0.5-0.9,0.5-1.4c0-0.8-0.2-1.3-0.7-1.7
		c-0.5-0.4-1.4-0.7-2.6-0.9l-5.4-0.9c-2-0.3-3.6-1.1-4.6-2.3c-1.1-1.2-1.6-2.7-1.6-4.5c0-1.7,0.4-3.1,1.2-4.3c0.8-1.2,2-2.1,3.5-2.8
		s3.3-1,5.4-1c2,0,3.9,0.3,5.7,0.9c1.8,0.6,3.4,1.4,4.7,2.5l-3.2,4.6c-1.2-0.9-2.5-1.7-3.7-2.1c-1.2-0.5-2.5-0.7-3.9-0.7
		c-0.8,0-1.5,0.1-2.1,0.3c-0.6,0.2-1,0.5-1.3,0.9s-0.5,0.8-0.5,1.2c0,0.7,0.2,1.2,0.7,1.5c0.4,0.4,1.2,0.6,2.2,0.8l5.1,0.9
		c2.4,0.4,4.2,1.2,5.4,2.4s1.9,2.8,1.9,4.8c0,1.7-0.4,3.1-1.3,4.4c-0.9,1.3-2.1,2.2-3.8,3S714.4,36.5,712.2,36.5z"/>
	<path class="st1" d="M735,36.1V10.6h19.3v5.2h-13v4.8h9.2v5.1h-9.2v5.1h13.1v5.2H735z"/>
	<path class="st1" d="M776.8,38l-1.9-2.4c-0.8,0.3-1.5,0.5-2.3,0.7c-0.8,0.2-1.7,0.2-2.5,0.2c-1.8,0-3.6-0.3-5.2-1
		c-1.6-0.7-3-1.6-4.2-2.8c-1.2-1.2-2.1-2.6-2.8-4.2c-0.7-1.6-1-3.3-1-5.2c0-1.8,0.3-3.6,1-5.2c0.7-1.6,1.6-3,2.8-4.2
		c1.2-1.2,2.6-2.1,4.2-2.8c1.6-0.7,3.3-1,5.2-1c1.8,0,3.6,0.3,5.2,1c1.6,0.7,3,1.6,4.2,2.8c1.2,1.2,2.1,2.6,2.8,4.2
		c0.7,1.6,1,3.3,1,5.2c0,1.8-0.3,3.5-1,5.1c-0.7,1.6-1.6,3-2.8,4.2l2.7,3.4L776.8,38z M770,30.9c0.2,0,0.4,0,0.6,0s0.4,0,0.5-0.1
		l-2.6-3.3l5.3-2l1.7,2.1c0.4-0.6,0.6-1.3,0.9-2c0.2-0.7,0.3-1.5,0.3-2.3c0-1.1-0.2-2.1-0.5-3s-0.8-1.7-1.4-2.4
		c-0.6-0.7-1.3-1.2-2.1-1.6s-1.7-0.6-2.7-0.6c-0.9,0-1.8,0.2-2.7,0.6c-0.8,0.4-1.5,0.9-2.1,1.6c-0.6,0.7-1.1,1.5-1.4,2.4
		c-0.3,0.9-0.5,1.9-0.5,3s0.2,2.1,0.5,3c0.3,0.9,0.8,1.7,1.4,2.4c0.6,0.7,1.3,1.2,2.1,1.6C768.2,30.7,769.1,30.9,770,30.9z"/>
	<path class="st1" d="M798.5,36.5c-2.3,0-4.3-0.5-6-1.4c-1.7-0.9-3-2.3-3.9-4c-0.9-1.7-1.4-3.7-1.4-6.1V10.6h6.3V25
		c0,1.2,0.2,2.2,0.6,3.1c0.4,0.9,1,1.6,1.7,2c0.8,0.5,1.6,0.7,2.7,0.7c1,0,1.9-0.2,2.7-0.7c0.8-0.5,1.3-1.2,1.7-2
		c0.4-0.9,0.6-1.9,0.6-3.1V10.6h6.3V25c0,2.3-0.5,4.4-1.4,6.1c-0.9,1.7-2.2,3-3.9,4C802.8,36,800.8,36.5,798.5,36.5z"/>
	<path class="st1" d="M814.6,36.1V10.6h6.3v25.5H814.6z"/>
	<path class="st1" d="M826.1,36.1V10.6h12.5c1.8,0,3.4,0.4,4.8,1.1c1.3,0.7,2.4,1.7,3.1,3c0.7,1.3,1.1,2.7,1.1,4.3
		c0,1.5-0.4,2.9-1.1,4.2c-0.7,1.2-1.8,2.2-3.1,2.9c-1.3,0.7-2.9,1.1-4.8,1.1h-6.2v8.9H826.1z M832.4,22.2h5.1c1.3,0,2.2-0.3,2.9-0.9
		s0.9-1.4,0.9-2.3s-0.3-1.7-0.9-2.3c-0.6-0.6-1.6-0.9-2.8-0.9h-5.1V22.2z"/>
	<path class="st1" d="M864,36.5c-1.8,0-3.6-0.3-5.2-1c-1.6-0.7-3-1.6-4.2-2.8c-1.2-1.2-2.1-2.6-2.8-4.2c-0.7-1.6-1-3.3-1-5.2
		c0-1.8,0.3-3.6,1-5.2c0.7-1.6,1.6-3,2.8-4.2c1.2-1.2,2.6-2.1,4.2-2.8c1.6-0.7,3.3-1,5.2-1c1.8,0,3.6,0.3,5.2,1
		c1.6,0.7,3,1.6,4.2,2.8c1.2,1.2,2.1,2.6,2.8,4.2c0.7,1.6,1,3.3,1,5.2c0,1.8-0.3,3.6-1,5.2c-0.7,1.6-1.6,3-2.8,4.2
		c-1.2,1.2-2.6,2.1-4.2,2.8C867.6,36.2,865.8,36.5,864,36.5z M864,30.9c0.9,0,1.8-0.2,2.7-0.6c0.8-0.4,1.5-0.9,2.1-1.6
		c0.6-0.7,1.1-1.5,1.4-2.4c0.3-0.9,0.5-1.9,0.5-3s-0.2-2.1-0.5-3s-0.8-1.7-1.4-2.4c-0.6-0.7-1.3-1.2-2.1-1.6s-1.7-0.6-2.7-0.6
		c-0.9,0-1.8,0.2-2.7,0.6c-0.8,0.4-1.5,0.9-2.1,1.6c-0.6,0.7-1.1,1.5-1.4,2.4c-0.3,0.9-0.5,1.9-0.5,3s0.2,2.1,0.5,3
		c0.3,0.9,0.8,1.7,1.4,2.4c0.6,0.7,1.3,1.2,2.1,1.6C862.2,30.7,863,30.9,864,30.9z"/>
</g>
</svg>
